<?xml version="1.0" encoding="utf-8"?>
<!-- Generator: Adobe Illustrator 19.1.0, SVG Export Plug-In . SVG Version: 6.00 Build 0)  -->
<svg version="1.1" id="Layer_1" xmlns="http://www.w3.org/2000/svg" xmlns:xlink="http://www.w3.org/1999/xlink" x="0px" y="0px"
	 viewBox="0 0 214 42.5" enable-background="new 0 0 214 42.5" xml:space="preserve">
<g>
	<path fill="#00AEEF" d="M10.6,8.5h8.7c-0.7-3.6-3.9-6.4-7.7-6.4H4.2L10.6,8.5z"/>
	<path fill="#00AEEF" d="M10.6,11.5l-6.3,6.3h7.4c3.8,0,7-2.7,7.7-6.3H10.6z"/>
	<polygon fill="#00AEEF" points="0,2.1 0,17.8 7.8,10 	"/>
	<path fill="#003E52" d="M140,1.2c-4.8,0-8.7,3.9-8.7,8.7c0,4.8,3.9,8.7,8.7,8.7c4.8,0,8.7-3.9,8.7-8.7C148.7,5.2,144.8,1.2,140,1.2
		 M140,15.7c-3.2,0-5.7-2.6-5.7-5.7c0-3.2,2.6-5.7,5.7-5.7c3.2,0,5.7,2.6,5.7,5.7C145.7,13.1,143.2,15.7,140,15.7"/>
	<polygon fill="#003E52" points="68.2,2.1 68.2,5.1 68.2,8.5 68.2,11.5 68.2,14.8 68.2,17.8 71.2,17.8 83.9,17.8 83.9,14.8 
		71.2,14.8 71.2,11.5 82.1,11.5 82.1,8.5 71.2,8.5 71.2,5.1 83.9,5.1 83.9,2.1 71.2,2.1 	"/>
	<polygon fill="#003E52" points="49.5,13.6 38,2.1 38,2.2 38,2.1 35,2.1 35,17.8 38,17.8 38,6.4 49.5,17.8 49.5,17.8 49.5,17.8 
		52.5,17.8 52.5,2.1 49.5,2.1 	"/>
	<polygon fill="#003E52" points="175.9,13.6 164.4,2.1 164.4,2.2 164.4,2.1 161.4,2.1 161.4,17.8 164.4,17.8 164.4,6.4 175.9,17.8 
		175.9,17.8 175.9,17.8 178.9,17.8 178.9,2.1 175.9,2.1 	"/>
	<path fill="#003E52" d="M206.2,17.8c4.3,0,7.9-3.5,7.9-7.9c0-4.3-3.5-7.9-7.9-7.9h-11.6v15.7H206.2z M206.2,14.8h-8.6V5.1h8.6
		c2.7,0,4.9,2.2,4.9,4.9C211,12.6,208.9,14.8,206.2,14.8"/>
	<polygon fill="#003E52" points="99.6,0 97.5,2.1 105.3,10 97.5,17.8 99.6,19.9 108.1,11.5 118.6,11.5 118.6,8.5 108.1,8.5 	"/>
	<polygon fill="#003E52" points="38.6,37.3 39.3,37.3 39.3,42.5 38.7,42.5 35.7,38.6 35.7,42.5 35,42.5 35,37.3 35.6,37.3 
		38.6,41.2 	"/>
	<polygon fill="#003E52" points="42.8,42.5 42.8,37.3 46.2,37.3 46.2,37.9 43.6,37.9 43.6,39.5 46.1,39.5 46.1,40.2 43.6,40.2 
		43.6,41.9 46.2,41.9 46.2,42.5 	"/>
	<polygon fill="#003E52" points="56.1,37.3 56.8,37.3 55,42.5 54.4,42.5 52.9,38.5 51.5,42.5 50.9,42.5 49,37.3 49.8,37.3 
		51.2,41.4 52.7,37.3 53.2,37.3 54.7,41.4 	"/>
	<polygon fill="#003E52" points="70.9,37.3 71.6,37.3 69.8,42.5 69.1,42.5 67.7,38.5 66.3,42.5 65.7,42.5 63.8,37.3 64.6,37.3 
		66,41.4 67.5,37.3 68,37.3 69.4,41.4 	"/>
	<path fill="#003E52" d="M78.3,42.5l-0.6-1.3h-2.7l-0.6,1.3h-0.8l2.3-5.1h0.6l2.3,5.1H78.3z M75.3,40.6h2.1l-1.1-2.4L75.3,40.6z"/>
	<polygon fill="#003E52" points="85.6,37.3 83.5,40.4 83.5,42.5 82.7,42.5 82.7,40.4 80.6,37.3 81.5,37.3 83.1,39.7 84.7,37.3 	"/>
	<path fill="#003E52" d="M88.7,42.4c-0.3-0.1-0.6-0.3-0.9-0.5l0.3-0.5c0.3,0.2,0.5,0.3,0.8,0.4c0.3,0.1,0.6,0.1,0.9,0.1
		c0.4,0,0.7-0.1,0.9-0.2c0.2-0.1,0.3-0.3,0.3-0.6c0-0.2-0.1-0.4-0.3-0.5c-0.2-0.1-0.5-0.2-1-0.3c-0.4-0.1-0.8-0.2-1-0.3
		c-0.3-0.1-0.5-0.3-0.6-0.5c-0.2-0.2-0.2-0.4-0.2-0.7c0-0.3,0.1-0.6,0.2-0.8c0.2-0.2,0.4-0.4,0.7-0.5c0.3-0.1,0.6-0.2,1-0.2
		c0.4,0,0.7,0.1,1,0.2c0.3,0.1,0.6,0.3,0.8,0.5l-0.3,0.5c-0.2-0.2-0.5-0.3-0.7-0.4s-0.5-0.1-0.8-0.1c-0.4,0-0.7,0.1-0.9,0.2
		c-0.2,0.2-0.3,0.4-0.3,0.6c0,0.2,0.1,0.4,0.3,0.5c0.2,0.1,0.5,0.2,0.9,0.3c0.4,0.1,0.8,0.2,1.1,0.3c0.3,0.1,0.5,0.3,0.6,0.4
		c0.2,0.2,0.2,0.4,0.2,0.7c0,0.3-0.1,0.6-0.2,0.8c-0.2,0.2-0.4,0.4-0.7,0.5c-0.3,0.1-0.7,0.2-1.1,0.2C89.4,42.5,89,42.5,88.7,42.4"
		/>
	<polygon fill="#003E52" points="100.6,42.5 100.6,37.9 98.8,37.9 98.8,37.3 103.1,37.3 103.1,37.9 101.3,37.9 101.3,42.5 	"/>
	<path fill="#003E52" d="M106.7,42.2c-0.4-0.2-0.6-0.5-0.8-0.9c-0.2-0.4-0.3-0.9-0.3-1.4c0-0.5,0.1-1,0.3-1.4
		c0.2-0.4,0.5-0.7,0.8-0.9c0.4-0.2,0.8-0.3,1.3-0.3c0.5,0,0.9,0.1,1.3,0.3c0.4,0.2,0.6,0.5,0.8,0.9c0.2,0.4,0.3,0.9,0.3,1.4
		c0,0.5-0.1,1-0.3,1.4c-0.2,0.4-0.5,0.7-0.8,0.9c-0.4,0.2-0.8,0.3-1.3,0.3C107.5,42.5,107.1,42.4,106.7,42.2 M109.3,41.4
		c0.3-0.4,0.4-0.9,0.4-1.5c0-0.6-0.1-1.1-0.4-1.5c-0.3-0.3-0.7-0.5-1.2-0.5c-0.5,0-0.9,0.2-1.2,0.5c-0.3,0.3-0.4,0.8-0.4,1.5
		c0,0.6,0.1,1.1,0.4,1.5c0.3,0.4,0.7,0.5,1.2,0.5C108.6,41.9,109,41.7,109.3,41.4"/>
	<path fill="#003E52" d="M122.3,39.7v2.4c-0.2,0.1-0.5,0.2-0.8,0.3s-0.7,0.1-1,0.1c-0.5,0-1-0.1-1.4-0.3c-0.4-0.2-0.7-0.5-0.9-0.9
		c-0.2-0.4-0.3-0.9-0.3-1.4c0-0.5,0.1-1,0.3-1.4c0.2-0.4,0.5-0.7,0.9-0.9c0.4-0.2,0.8-0.3,1.3-0.3c0.4,0,0.7,0.1,1,0.2
		c0.3,0.1,0.6,0.3,0.8,0.5l-0.3,0.6c-0.3-0.2-0.5-0.3-0.7-0.4c-0.2-0.1-0.5-0.1-0.8-0.1c-0.6,0-1,0.2-1.3,0.5
		c-0.3,0.3-0.4,0.8-0.4,1.5c0,0.7,0.2,1.2,0.5,1.5s0.8,0.5,1.4,0.5c0.4,0,0.8-0.1,1.2-0.2v-1.4h-1.2v-0.6H122.3z"/>
	<path fill="#003E52" d="M126.7,42.2c-0.4-0.2-0.7-0.5-0.8-0.9c-0.2-0.4-0.3-0.9-0.3-1.4c0-0.5,0.1-1,0.3-1.4
		c0.2-0.4,0.5-0.7,0.8-0.9c0.4-0.2,0.8-0.3,1.3-0.3c0.5,0,0.9,0.1,1.3,0.3c0.4,0.2,0.6,0.5,0.8,0.9c0.2,0.4,0.3,0.9,0.3,1.4
		c0,0.5-0.1,1-0.3,1.4c-0.2,0.4-0.5,0.7-0.8,0.9c-0.4,0.2-0.8,0.3-1.3,0.3S127.1,42.4,126.7,42.2 M129.3,41.4
		c0.3-0.4,0.4-0.9,0.4-1.5c0-0.6-0.1-1.1-0.4-1.5c-0.3-0.3-0.7-0.5-1.2-0.5s-0.9,0.2-1.2,0.5c-0.3,0.3-0.4,0.8-0.4,1.5
		c0,0.6,0.1,1.1,0.4,1.5c0.3,0.4,0.7,0.5,1.2,0.5C128.6,41.9,129,41.7,129.3,41.4"/>
	<path fill="#003E52" d="M141.9,40.3c0.2,0.2,0.3,0.5,0.3,0.8c0,0.4-0.2,0.8-0.5,1c-0.3,0.2-0.8,0.4-1.3,0.4h-2.3v-5.1h2.2
		c0.5,0,1,0.1,1.3,0.4c0.3,0.2,0.5,0.6,0.5,1c0,0.3-0.1,0.5-0.2,0.7c-0.1,0.2-0.3,0.3-0.6,0.4C141.5,39.9,141.7,40,141.9,40.3
		 M138.8,39.6h1.3c0.7,0,1.1-0.3,1.1-0.8c0-0.5-0.4-0.8-1.1-0.8h-1.3V39.6z M141.1,41.7c0.2-0.1,0.3-0.3,0.3-0.6
		c0-0.3-0.1-0.5-0.3-0.7s-0.5-0.2-0.8-0.2h-1.4v1.7h1.4C140.6,41.9,140.9,41.8,141.1,41.7"/>
	<polygon fill="#003E52" points="145.4,42.5 145.4,37.3 148.8,37.3 148.8,37.9 146.2,37.9 146.2,39.5 148.7,39.5 148.7,40.2 
		146.2,40.2 146.2,41.9 148.8,41.9 148.8,42.5 	"/>
	<polygon fill="#003E52" points="156.2,37.3 154.1,40.4 154.1,42.5 153.3,42.5 153.3,40.4 151.2,37.3 152.1,37.3 153.7,39.7 
		155.3,37.3 	"/>
	<path fill="#003E52" d="M159.5,42.2c-0.4-0.2-0.7-0.5-0.8-0.9c-0.2-0.4-0.3-0.9-0.3-1.4c0-0.5,0.1-1,0.3-1.4
		c0.2-0.4,0.5-0.7,0.8-0.9c0.4-0.2,0.8-0.3,1.3-0.3c0.5,0,0.9,0.1,1.3,0.3c0.4,0.2,0.6,0.5,0.8,0.9c0.2,0.4,0.3,0.9,0.3,1.4
		c0,0.5-0.1,1-0.3,1.4c-0.2,0.4-0.5,0.7-0.8,0.9c-0.4,0.2-0.8,0.3-1.3,0.3S159.9,42.4,159.5,42.2 M162,41.4c0.3-0.4,0.4-0.9,0.4-1.5
		c0-0.6-0.1-1.1-0.4-1.5c-0.3-0.3-0.7-0.5-1.2-0.5c-0.5,0-0.9,0.2-1.2,0.5c-0.3,0.3-0.4,0.8-0.4,1.5c0,0.6,0.1,1.1,0.4,1.5
		c0.3,0.4,0.7,0.5,1.2,0.5C161.3,41.9,161.7,41.7,162,41.4"/>
	<polygon fill="#003E52" points="170.2,37.3 170.9,37.3 170.9,42.5 170.3,42.5 167.3,38.6 167.3,42.5 166.6,42.5 166.6,37.3 
		167.1,37.3 170.2,41.2 	"/>
	<path fill="#003E52" d="M174.4,37.3h1.8c0.9,0,1.5,0.2,2,0.7c0.5,0.4,0.7,1.1,0.7,1.9c0,0.8-0.2,1.5-0.7,1.9
		c-0.5,0.5-1.1,0.7-2,0.7h-1.8V37.3z M176.2,41.8c1.3,0,1.9-0.7,1.9-2c0-1.3-0.6-1.9-1.9-1.9h-1v3.9H176.2z"/>
</g>
</svg>
