<?xml version="1.0" encoding="UTF-8" standalone="no"?>
<!DOCTYPE svg PUBLIC "-//W3C//DTD SVG 1.1//EN" "http://www.w3.org/Graphics/SVG/1.1/DTD/svg11.dtd">
<svg width="100%" height="100%" viewBox="0 0 302 97" version="1.1" xmlns="http://www.w3.org/2000/svg" xmlns:xlink="http://www.w3.org/1999/xlink" xml:space="preserve" xmlns:serif="http://www.serif.com/" style="fill-rule:evenodd;clip-rule:evenodd;stroke-linejoin:round;stroke-miterlimit:2;">
    <g transform="matrix(1,0,0,1,111.138,80.684)">
        <path d="M0,-14.756C-0.346,-14.811 -0.739,-14.839 -1.181,-14.839L-7.357,-14.839L-7.357,0.083L-4.87,0.083L-4.87,-5.119L-1.181,-5.119C-0.739,-5.119 -0.346,-5.147 0,-5.202C1.243,-5.409 2.19,-5.941 2.839,-6.798C3.489,-7.654 3.813,-8.718 3.813,-9.989C3.813,-11.274 3.492,-12.342 2.85,-13.191C2.207,-14.041 1.257,-14.562 0,-14.756M-0.352,-7.565C-0.601,-7.495 -0.912,-7.461 -1.285,-7.461L-4.87,-7.461L-4.87,-12.497L-1.285,-12.497C-0.912,-12.497 -0.601,-12.462 -0.352,-12.393C0.214,-12.255 0.629,-11.958 0.891,-11.502C1.153,-11.046 1.285,-10.542 1.285,-9.989C1.285,-9.437 1.153,-8.929 0.891,-8.466C0.629,-8.003 0.214,-7.703 -0.352,-7.565M13.011,0.394C14.447,0.394 15.701,0.069 16.772,-0.58C17.843,-1.23 18.668,-2.138 19.249,-3.306C19.829,-4.473 20.126,-5.831 20.14,-7.378C20.112,-8.939 19.812,-10.303 19.238,-11.471C18.665,-12.639 17.843,-13.544 16.772,-14.186C15.701,-14.829 14.434,-15.15 12.969,-15.15C11.532,-15.15 10.275,-14.818 9.197,-14.155C8.12,-13.492 7.294,-12.573 6.721,-11.399C6.147,-10.224 5.861,-8.884 5.861,-7.378C5.861,-5.872 6.151,-4.532 6.731,-3.358C7.311,-2.183 8.14,-1.264 9.218,-0.601C10.296,0.062 11.56,0.394 13.011,0.394M13.094,-1.969C11.574,-1.969 10.427,-2.459 9.653,-3.44C8.879,-4.421 8.493,-5.775 8.493,-7.502C8.493,-9.091 8.879,-10.369 9.653,-11.336C10.427,-12.303 11.519,-12.787 12.928,-12.787C14.42,-12.787 15.556,-12.303 16.337,-11.336C17.117,-10.369 17.508,-9.05 17.508,-7.378C17.508,-5.734 17.128,-4.421 16.368,-3.44C15.608,-2.459 14.516,-1.969 13.094,-1.969M31.596,0.083L34.415,0.083L31.659,-5.575C32.488,-5.948 33.116,-6.521 33.544,-7.295C33.973,-8.069 34.187,-8.967 34.187,-9.989C34.187,-11.274 33.866,-12.342 33.223,-13.191C32.581,-14.041 31.631,-14.562 30.374,-14.756C30.028,-14.811 29.634,-14.839 29.192,-14.839L23.016,-14.839L23.016,0.083L25.503,0.083L25.503,-5.119L29.068,-5.119L31.596,0.083ZM25.503,-12.497L29.089,-12.497C29.462,-12.497 29.773,-12.462 30.021,-12.393C30.588,-12.255 31.002,-11.958 31.265,-11.502C31.527,-11.046 31.659,-10.542 31.659,-9.989C31.659,-9.437 31.527,-8.929 31.265,-8.466C31.002,-8.003 30.588,-7.703 30.021,-7.565C29.773,-7.495 29.462,-7.461 29.089,-7.461L25.503,-7.461L25.503,-12.497ZM47.799,-14.839L35.633,-14.839L35.633,-12.497L40.462,-12.497L40.462,0.083L42.97,0.083L42.97,-12.497L47.799,-12.497L47.799,-14.839ZM62.073,-14.839L59.545,-14.839L59.545,-5.679C59.545,-5.223 59.51,-4.85 59.441,-4.56C59.262,-3.813 58.857,-3.192 58.229,-2.694C57.6,-2.197 56.885,-1.948 56.084,-1.948C55.282,-1.948 54.567,-2.176 53.939,-2.632C53.31,-3.088 52.899,-3.682 52.706,-4.414C52.623,-4.76 52.581,-5.181 52.581,-5.679L52.581,-14.839L50.053,-14.818L50.053,-5.451C50.053,-4.87 50.108,-4.359 50.219,-3.917C50.509,-2.563 51.183,-1.506 52.24,-0.746C53.296,0.014 54.578,0.394 56.084,0.394C57.548,0.394 58.806,0.01 59.856,-0.757C60.906,-1.523 61.59,-2.584 61.908,-3.938C62.018,-4.463 62.073,-4.967 62.073,-5.451L62.073,-14.839ZM78.918,-7.751L72.908,-7.751L72.908,-5.782L76.017,-5.782C75.961,-5.326 75.833,-4.87 75.633,-4.414C75.433,-3.959 75.167,-3.572 74.835,-3.254C74.103,-2.521 73.191,-2.169 72.1,-2.197C71.437,-2.183 70.808,-2.307 70.214,-2.57C69.62,-2.832 69.143,-3.212 68.784,-3.71C68.424,-4.193 68.169,-4.739 68.017,-5.347C67.865,-5.955 67.782,-6.632 67.768,-7.378C67.796,-8.981 68.134,-10.203 68.784,-11.046C69.143,-11.544 69.616,-11.924 70.204,-12.186C70.791,-12.448 71.423,-12.58 72.1,-12.58C73.219,-12.58 74.131,-12.228 74.835,-11.523C75.264,-11.108 75.588,-10.556 75.809,-9.865L78.524,-10.28C78.179,-11.675 77.495,-12.794 76.473,-13.637C75.354,-14.645 73.841,-15.15 71.934,-15.15C70.842,-15.15 69.848,-14.949 68.95,-14.549C68.051,-14.148 67.278,-13.547 66.629,-12.746C65.509,-11.378 64.95,-9.588 64.95,-7.378C64.95,-5.319 65.509,-3.544 66.629,-2.052C67.236,-1.264 68,-0.66 68.919,-0.239C69.837,0.183 70.842,0.394 71.934,0.394C72.998,0.394 73.979,0.214 74.877,-0.145C75.775,-0.504 76.542,-1.064 77.177,-1.824C77.744,-2.487 78.179,-3.257 78.483,-4.135C78.787,-5.012 78.939,-5.955 78.939,-6.964L78.918,-7.751ZM93.836,-14.839L91.307,-14.839L91.307,-5.679C91.307,-5.223 91.272,-4.85 91.204,-4.56C91.024,-3.813 90.62,-3.192 89.991,-2.694C89.362,-2.197 88.647,-1.948 87.846,-1.948C87.045,-1.948 86.33,-2.176 85.701,-2.632C85.072,-3.088 84.661,-3.682 84.468,-4.414C84.385,-4.76 84.344,-5.181 84.344,-5.679L84.344,-14.839L81.815,-14.818L81.815,-5.451C81.815,-4.87 81.87,-4.359 81.981,-3.917C82.271,-2.563 82.945,-1.506 84.002,-0.746C85.059,0.014 86.34,0.394 87.846,0.394C89.31,0.394 90.568,0.01 91.618,-0.757C92.668,-1.523 93.352,-2.584 93.67,-3.938C93.78,-4.463 93.836,-4.967 93.836,-5.451L93.836,-14.839ZM106.971,-12.497L106.971,-14.839L97.334,-14.839L97.334,0.083L106.971,0.083L106.971,-2.259L99.821,-2.259L99.821,-6.487L105.727,-6.487L105.727,-8.808L99.821,-8.808L99.821,-12.497L106.971,-12.497ZM119.961,-10.756C119.601,-12.373 118.69,-13.588 117.225,-14.404C116.368,-14.873 115.319,-15.122 114.075,-15.15C112.541,-15.15 111.305,-14.811 110.365,-14.134C109.827,-13.761 109.402,-13.288 109.091,-12.715C108.78,-12.141 108.625,-11.516 108.625,-10.839C108.625,-9.679 108.977,-8.767 109.681,-8.103C110.013,-7.772 110.4,-7.516 110.842,-7.337C111.284,-7.157 111.899,-6.956 112.687,-6.736L115.464,-5.927C115.837,-5.817 116.14,-5.713 116.376,-5.617C116.61,-5.52 116.811,-5.389 116.977,-5.223C117.308,-4.933 117.474,-4.546 117.474,-4.062C117.474,-3.495 117.211,-3.012 116.686,-2.611C116.41,-2.39 116.058,-2.225 115.629,-2.114C115.201,-2.003 114.759,-1.948 114.303,-1.948C113.778,-1.948 113.274,-2.048 112.79,-2.249C112.306,-2.449 111.892,-2.722 111.547,-3.067C111.118,-3.495 110.814,-4.048 110.635,-4.725L108.044,-4.332C108.21,-3.281 108.638,-2.363 109.329,-1.575C110.531,-0.262 112.161,0.394 114.22,0.394C116.03,0.394 117.467,-0.062 118.531,-0.974C119.014,-1.389 119.394,-1.855 119.671,-2.373C119.947,-2.891 120.085,-3.433 120.085,-4C120.085,-4.649 120.013,-5.195 119.868,-5.637C119.723,-6.079 119.463,-6.501 119.09,-6.901C118.579,-7.454 117.557,-7.951 116.023,-8.394L113.412,-9.098C112.5,-9.374 111.899,-9.665 111.609,-9.969C111.374,-10.203 111.257,-10.521 111.257,-10.922C111.257,-11.212 111.339,-11.482 111.505,-11.73C111.671,-11.979 111.892,-12.186 112.168,-12.352C112.679,-12.642 113.26,-12.787 113.909,-12.787C114.683,-12.787 115.36,-12.607 115.94,-12.248C116.285,-12.027 116.576,-11.747 116.811,-11.409C117.045,-11.07 117.204,-10.701 117.287,-10.3L119.961,-10.756ZM132.225,0.083L134.795,0.083L130.091,-14.839L126.422,-14.839L121.718,0.083L124.288,0.083L125.303,-3.15L131.189,-3.15L132.225,0.083ZM126.049,-5.492L128.225,-12.414L130.443,-5.492L126.049,-5.492Z" style="fill:rgb(20,20,63);fill-rule:nonzero;"/>
    </g>
    <g transform="matrix(1,0,0,1,113.252,35.5608)">
        <path d="M0,19.626L2.57,19.626L-2.135,4.704L-5.803,4.704L-10.507,19.626L-7.937,19.626L-6.922,16.393L-1.036,16.393L0,19.626ZM-6.176,14.051L-4,7.129L-1.782,14.051L-6.176,14.051ZM17.964,11.792L11.954,11.792L11.954,13.761L15.062,13.761C15.007,14.217 14.879,14.673 14.679,15.129C14.479,15.585 14.213,15.972 13.881,16.289C13.149,17.022 12.237,17.374 11.145,17.346C10.482,17.36 9.853,17.236 9.26,16.973C8.665,16.711 8.189,16.331 7.83,15.833C7.47,15.35 7.215,14.804 7.063,14.196C6.911,13.588 6.828,12.911 6.814,12.165C6.842,10.563 7.18,9.34 7.83,8.497C8.189,8 8.662,7.62 9.249,7.357C9.836,7.095 10.468,6.963 11.145,6.963C12.265,6.963 13.176,7.316 13.881,8.02C14.309,8.435 14.634,8.988 14.855,9.678L17.57,9.264C17.225,7.868 16.541,6.749 15.518,5.906C14.399,4.898 12.886,4.394 10.98,4.394C9.888,4.394 8.893,4.594 7.995,4.995C7.097,5.395 6.323,5.996 5.674,6.798C4.555,8.165 3.995,9.955 3.995,12.165C3.995,14.224 4.555,15.999 5.674,17.491C6.282,18.279 7.045,18.883 7.964,19.305C8.883,19.726 9.888,19.937 10.98,19.937C12.043,19.937 13.024,19.757 13.923,19.398C14.82,19.039 15.587,18.479 16.223,17.719C16.789,17.056 17.225,16.286 17.529,15.409C17.832,14.531 17.984,13.588 17.984,12.58L17.964,11.792ZM25.565,1.907L28.177,3.337L29.089,1.616L25.565,-0.311L22.022,1.616L22.933,3.337L25.565,1.907ZM30.498,7.046L30.498,4.704L20.861,4.704L20.861,19.626L30.498,19.626L30.498,17.284L23.348,17.284L23.348,13.056L29.254,13.056L29.254,10.735L23.348,10.735L23.348,7.046L30.498,7.046ZM36.11,4.704L33.582,4.704L33.582,19.626L36.11,19.626L36.11,9.098L43.032,19.626L45.56,19.626L45.56,4.704L43.032,4.704L43.032,15.212L36.11,4.704ZM59.566,14.611C59.386,15.15 59.151,15.613 58.861,15.999C58.474,16.511 58.008,16.901 57.462,17.17C56.916,17.44 56.319,17.574 55.67,17.574C54.937,17.574 54.264,17.443 53.649,17.181C53.034,16.918 52.533,16.524 52.146,15.999C51.732,15.488 51.449,14.901 51.297,14.238C51.145,13.574 51.069,12.835 51.069,12.02C51.069,10.445 51.428,9.216 52.146,8.331C52.506,7.82 52.986,7.43 53.587,7.16C54.188,6.891 54.827,6.756 55.504,6.756C56.941,6.756 58.06,7.281 58.861,8.331C59.193,8.787 59.441,9.298 59.607,9.865L62.115,9.512C61.935,8.794 61.676,8.138 61.338,7.544C60.999,6.95 60.54,6.404 59.96,5.906C58.813,4.898 57.3,4.394 55.421,4.394C54.343,4.394 53.352,4.594 52.447,4.995C51.542,5.395 50.765,5.996 50.115,6.798C48.996,8.138 48.437,9.927 48.437,12.165C48.437,14.265 49.003,16.048 50.136,17.512C50.744,18.3 51.504,18.901 52.416,19.315C53.328,19.73 54.329,19.937 55.421,19.937C57.314,19.937 58.833,19.439 59.98,18.445C60.505,18.003 60.927,17.516 61.245,16.984C61.562,16.452 61.818,15.861 62.011,15.212L59.566,14.611ZM65.012,19.626L67.499,19.626L67.499,4.704L65.012,4.704L65.012,19.626ZM80.675,19.626L83.245,19.626L78.541,4.704L74.872,4.704L70.168,19.626L72.738,19.626L73.753,16.393L79.639,16.393L80.675,19.626ZM74.499,14.051L76.675,7.129L78.893,14.051L74.499,14.051ZM100.085,7.046L100.085,4.704L90.449,4.704L90.449,19.626L100.085,19.626L100.085,17.284L92.935,17.284L92.935,13.056L98.842,13.056L98.842,10.735L92.935,10.735L92.935,7.046L100.085,7.046ZM113.076,8.787C112.716,7.171 111.804,5.955 110.34,5.14C109.483,4.67 108.433,4.421 107.19,4.394C105.656,4.394 104.42,4.732 103.48,5.409C102.941,5.782 102.516,6.255 102.206,6.829C101.895,7.402 101.739,8.027 101.739,8.704C101.739,9.865 102.092,10.777 102.796,11.44C103.128,11.771 103.514,12.027 103.957,12.207C104.399,12.386 105.014,12.587 105.801,12.808L108.578,13.616C108.951,13.727 109.255,13.83 109.49,13.927C109.725,14.024 109.925,14.155 110.091,14.321C110.423,14.611 110.589,14.998 110.589,15.481C110.589,16.048 110.326,16.531 109.801,16.932C109.525,17.153 109.172,17.319 108.744,17.429C108.316,17.54 107.874,17.595 107.418,17.595C106.893,17.595 106.388,17.495 105.905,17.294C105.421,17.094 105.007,16.821 104.661,16.476C104.233,16.048 103.929,15.495 103.75,14.818L101.159,15.212C101.325,16.262 101.753,17.181 102.444,17.968C103.646,19.281 105.276,19.937 107.335,19.937C109.145,19.937 110.581,19.481 111.646,18.569C112.129,18.155 112.509,17.688 112.785,17.17C113.062,16.652 113.2,16.11 113.2,15.543C113.2,14.894 113.127,14.348 112.982,13.906C112.837,13.464 112.578,13.043 112.205,12.642C111.694,12.089 110.672,11.592 109.138,11.15L106.527,10.445C105.615,10.169 105.014,9.879 104.724,9.575C104.488,9.34 104.371,9.022 104.371,8.621C104.371,8.331 104.454,8.062 104.62,7.813C104.786,7.564 105.007,7.357 105.283,7.191C105.794,6.901 106.374,6.756 107.024,6.756C107.798,6.756 108.475,6.936 109.055,7.295C109.4,7.516 109.69,7.796 109.925,8.134C110.16,8.473 110.319,8.842 110.402,9.243L113.076,8.787ZM123.226,4.787C122.881,4.732 122.487,4.704 122.045,4.704L115.869,4.704L115.869,19.626L118.356,19.626L118.356,14.424L122.045,14.424C122.487,14.424 122.881,14.397 123.226,14.341C124.47,14.134 125.416,13.602 126.065,12.745C126.715,11.889 127.039,10.825 127.039,9.554C127.039,8.269 126.718,7.202 126.076,6.352C125.433,5.502 124.483,4.981 123.226,4.787M122.874,11.979C122.625,12.048 122.314,12.082 121.941,12.082L118.356,12.082L118.356,7.046L121.941,7.046C122.314,7.046 122.625,7.081 122.874,7.15C123.44,7.288 123.855,7.585 124.117,8.041C124.38,8.497 124.511,9.001 124.511,9.554C124.511,10.107 124.38,10.614 124.117,11.077C123.855,11.54 123.44,11.841 122.874,11.979M138.144,19.626L140.713,19.626L136.009,4.704L132.341,4.704L127.636,19.626L130.206,19.626L131.222,16.393L137.107,16.393L138.144,19.626ZM131.968,14.051L134.144,7.129L136.361,14.051L131.968,14.051ZM153.268,14.611C153.088,15.15 152.854,15.613 152.563,15.999C152.176,16.511 151.71,16.901 151.165,17.17C150.619,17.44 150.021,17.574 149.372,17.574C148.639,17.574 147.966,17.443 147.351,17.181C146.736,16.918 146.235,16.524 145.849,15.999C145.434,15.488 145.151,14.901 144.999,14.238C144.847,13.574 144.771,12.835 144.771,12.02C144.771,10.445 145.13,9.216 145.849,8.331C146.208,7.82 146.688,7.43 147.289,7.16C147.89,6.891 148.529,6.756 149.206,6.756C150.643,6.756 151.762,7.281 152.563,8.331C152.895,8.787 153.144,9.298 153.31,9.865L155.817,9.512C155.637,8.794 155.378,8.138 155.04,7.544C154.701,6.95 154.242,6.404 153.662,5.906C152.515,4.898 151.002,4.394 149.123,4.394C148.046,4.394 147.054,4.594 146.149,4.995C145.244,5.395 144.467,5.996 143.818,6.798C142.699,8.138 142.139,9.927 142.139,12.165C142.139,14.265 142.705,16.048 143.838,17.512C144.446,18.3 145.206,18.901 146.118,19.315C147.03,19.73 148.032,19.937 149.123,19.937C151.016,19.937 152.536,19.439 153.683,18.445C154.207,18.003 154.629,17.516 154.947,16.984C155.264,16.452 155.52,15.861 155.714,15.212L153.268,14.611ZM158.714,19.626L161.201,19.626L161.201,4.704L158.714,4.704L158.714,19.626ZM174.378,19.626L176.947,19.626L172.243,4.704L168.575,4.704L163.87,19.626L166.44,19.626L167.456,16.393L173.341,16.393L174.378,19.626ZM168.202,14.051L170.378,7.129L172.595,14.051L168.202,14.051ZM182.103,4.704L182.103,17.284L188.694,17.284L188.694,19.626L179.616,19.626L179.616,4.704L182.103,4.704Z" style="fill:rgb(20,20,63);fill-rule:nonzero;"/>
    </g>
    <g transform="matrix(78.3716,0,0,-78.3716,0.0001082,18.9)">
        <path d="M-0,-0.492C-0,-0.764 0.224,-0.984 0.5,-0.984C0.776,-0.984 1,-0.764 1,-0.492C1,-0.22 0.776,0 0.5,0C0.224,0 -0,-0.22 -0,-0.492ZM0.095,-0.492C0.095,-0.272 0.276,-0.093 0.5,-0.093C0.724,-0.093 0.905,-0.272 0.905,-0.492C0.905,-0.712 0.724,-0.891 0.5,-0.891C0.276,-0.891 0.095,-0.712 0.095,-0.492Z" style="fill:url(#_Linear1);fill-rule:nonzero;"/>
    </g>
    <g transform="matrix(0,19.2069,19.2069,0,87.8213,-0.153219)">
        <ellipse cx="0.5" cy="-0.492" rx="0.492" ry="0.5" style="fill:url(#_Linear2);"/>
    </g>
    <defs>
        <linearGradient id="_Linear1" x1="0" y1="0" x2="1" y2="0" gradientUnits="userSpaceOnUse" gradientTransform="matrix(1,0,0,-1,0,-0.984017)"><stop offset="0" style="stop-color:rgb(0,99,175);stop-opacity:1"/><stop offset="1" style="stop-color:rgb(20,20,63);stop-opacity:1"/></linearGradient>
        <linearGradient id="_Linear2" x1="0" y1="0" x2="1" y2="0" gradientUnits="userSpaceOnUse" gradientTransform="matrix(0,1,1,0,0.991988,-0.991988)"><stop offset="0" style="stop-color:rgb(0,99,175);stop-opacity:1"/><stop offset="1" style="stop-color:rgb(20,20,63);stop-opacity:1"/></linearGradient>
    </defs>
</svg>
