<?xml version="1.0" encoding="UTF-8"?><svg id="Camada_4" xmlns="http://www.w3.org/2000/svg" viewBox="0 0 1053.54 487.29"><g><g><path d="M434.63,122.21l84.66-96.13c4.14-4.14,10.84-4.14,14.98,0l84.6,96.07c12.1,13.74,29.46,21.71,47.77,21.94L546.72,8.26c-11.02-11.02-28.88-11.02-39.89,0l-119.91,135.82c18.29-.2,35.63-8.15,47.71-21.87Z"/><path d="M876.18,162.01c-5.1,4.2-11.5,6.5-18.11,6.5h-226.75c-15.4,0-29.65,8.23-37.23,21.62-1.34,2.36-2.8,4.65-4.39,6.87-2.02,2.82-4.23,5.52-6.63,8.08-14.58,15.49-35.1,24.38-56.3,24.38s-41.73-8.89-56.31-24.38c-2.4-2.55-4.61-5.25-6.63-8.07-1.59-2.22-3.05-4.51-4.39-6.87-7.59-13.4-21.84-21.62-37.23-21.62H195.47c-6.61,0-13.01-2.3-18.11-6.5l-26.71-22,26.6,34.43c5.08,6.57,12.77,10.6,21.06,11.03l220.13,11.53c7.21,0,14.02,3.64,17.76,9.81,3.84,6.35,8.37,12.32,13.52,17.79,19.94,21.19,48.03,33.35,77.06,33.35s57.11-12.15,77.05-33.34c5.15-5.48,9.68-11.44,13.52-17.8,3.73-6.17,10.55-9.81,17.76-9.81l220.13-11.53c8.29-.43,15.98-4.46,21.06-11.03l26.6-34.43-26.71,22Z"/></g><path d="M561.37,139.9c-12.36,0-22.39-10.02-22.39-22.39,0-7.49,3.69-14.1,9.33-18.16-6.65-2.72-13.92-4.23-21.54-4.23-31.47,0-56.99,25.51-56.99,56.99s25.51,56.99,56.99,56.99,56.99-25.51,56.99-56.99c0-7.63-1.51-14.9-4.23-21.54-4.06,5.64-10.68,9.33-18.16,9.33Z"/></g><g><g><path d="M434.63,122.21l84.66-96.13c4.14-4.14,10.84-4.14,14.98,0l84.6,96.07c12.1,13.74,29.46,21.71,47.77,21.94L546.72,8.26c-11.02-11.02-28.88-11.02-39.89,0l-119.91,135.82c18.29-.2,35.63-8.15,47.71-21.87Z"/><path d="M876.18,162.01c-5.1,4.2-11.5,6.5-18.11,6.5h-226.75c-15.4,0-29.65,8.23-37.23,21.62-1.34,2.36-2.8,4.65-4.39,6.87-2.02,2.82-4.23,5.52-6.63,8.08-14.58,15.49-35.1,24.38-56.3,24.38s-41.73-8.89-56.31-24.38c-2.4-2.55-4.61-5.25-6.63-8.07-1.59-2.22-3.05-4.51-4.39-6.87-7.59-13.4-21.84-21.62-37.23-21.62H195.47c-6.61,0-13.01-2.3-18.11-6.5l-26.71-22,26.6,34.43c5.08,6.57,12.77,10.6,21.06,11.03l220.13,11.53c7.21,0,14.02,3.64,17.76,9.81,3.84,6.35,8.37,12.32,13.52,17.79,19.94,21.19,48.03,33.35,77.06,33.35s57.11-12.15,77.05-33.34c5.15-5.48,9.68-11.44,13.52-17.8,3.73-6.17,10.55-9.81,17.76-9.81l220.13-11.53c8.29-.43,15.98-4.46,21.06-11.03l26.6-34.43-26.71,22Z"/></g><path d="M561.37,139.9c-12.36,0-22.39-10.02-22.39-22.39,0-7.49,3.69-14.1,9.33-18.16-6.65-2.72-13.92-4.23-21.54-4.23-31.47,0-56.99,25.51-56.99,56.99s25.51,56.99,56.99,56.99,56.99-25.51,56.99-56.99c0-7.63-1.51-14.9-4.23-21.54-4.06,5.64-10.68,9.33-18.16,9.33Z"/></g><g><g><path d="M102.35,280.27c-13.9,0-26.75,6.94-34.37,18.57L0,402.6H12.17c17.33,0,33.46-8.82,42.81-23.4h94.34c9.62,14.61,25.95,23.4,43.44,23.4h10.88l-66.75-103.51c-7.6-11.79-20.51-18.82-34.53-18.82Zm-32.79,75.71l28.03-43.67c1-1.56,2.73-2.5,4.58-2.5s3.56,.93,4.57,2.48l28.36,43.69H69.56Z"/><path d="M249.23,306.51h37.45v96.1h35.31v-96.1h63.49c0-14.49-11.75-26.23-26.23-26.23H223c0,14.49,11.75,26.23,26.23,26.23Z"/><path d="M554.96,376.37h-72.54v-60.79c0-19.5-15.81-35.31-35.31-35.31h0v122.33h134.08c0-14.49-11.75-26.23-26.23-26.23Z"/><path d="M734.52,280.27c-13.9,0-26.75,6.94-34.37,18.57l-67.98,103.76h12.17c17.33,0,33.46-8.82,42.81-23.4h94.34c9.62,14.61,25.94,23.4,43.44,23.4h10.88l-66.75-103.51c-7.6-11.79-20.51-18.82-34.54-18.82Zm-32.8,75.71l28.03-43.67c1-1.56,2.73-2.5,4.58-2.5s3.56,.93,4.57,2.48l28.36,43.69h-65.55Z"/><path d="M1044.58,338.98c-8.99-8.42-21.33-10.48-62.85-10.48h-22.92c-20.76,0-28.42-.66-32.75-2.8-3.15-1.6-4.56-4.26-4.56-8.64,0-1.12,.12-2.15,.34-3.1,.73-3.11,2.63-5.32,5.74-6.56,5.68-2.48,23.43-3.91,48.68-3.91,14.64,0,27.55,1.4,32.89,3.57,.02,0,.04,.02,.06,.03,10.11,4.28,20.85,6.88,31.83,6.88h7.81c-.27-18.39-6.91-26.94-24.2-31.32-9.3-2.47-23.77-3.44-51.64-3.44-45.6,0-66.13,2.91-75.67,10.7-5.85,4.47-9.59,13.06-10.63,24.05-.2,2.08-.31,4.23-.31,6.47,0,11.16,3.38,19.17,10.3,24.46,7.98,6.41,19.32,8.42,48.53,8.6h19.57q36.83,.18,42.32,1.21c9.35,1.78,11.12,4.91,11.12,10.06,0,1.44-.28,2.84-.75,4.16-.58,1.64-1.48,3.17-2.73,4.52-2.03,2.07-5.61,3.19-12.76,4.01-14.49,1.58-25.03,2.11-41.76,2.11-19.26,0-29.86-1.03-34.37-3.33-.02,0-.03-.02-.05-.03-8.77-4.51-18.32-7.29-28.18-7.29h-11.03c0,.09,0,.19,0,.27,0,11.74,2.91,19.44,9.45,24.97,9.08,7.56,24.23,9.51,73.71,9.51,46.06,0,63.87-2.53,73.32-10.41,6.42-5.44,9.72-13.26,10.33-24.34,.07-1.24,.13-2.49,.13-3.81,0-12.29-2.85-20.6-8.96-26.13Z"/></g><g><path d="M77.86,477.9c.07,1.96,.26,2.43,1.13,2.82,.55,.26,2.63,.43,4.97,.43,8.58,0,9.6-.3,9.6-2.65,0-1.15-.48-2.01-1.24-2.31q-.8-.3-4.64-.34h-6.72c-4.49,0-6.35-.3-7.93-1.24-1.75-1.07-2.56-3.33-2.56-7.21,0-5.12,1.24-7.3,4.75-8.28,1.97-.6,4.82-.81,10.15-.81,8.55,0,10.52,.26,12.27,1.58,1.68,1.32,2.23,3.07,2.23,7.34h-7.23c0-2.47-.73-2.82-5.51-2.82-2.37,0-5.55,.09-6.72,.17-1.97,.17-2.63,.77-2.63,2.39,0,1.19,.51,1.96,1.57,2.26,.44,.13,.58,.17,2.99,.21h6.9c.66,0,3.94,.13,5.19,.21,4.64,.25,6.46,2.65,6.46,8.36,0,5.25-1.32,7.55-4.89,8.45-1.83,.47-5.44,.73-10.74,.73-8.44,0-10.3-.21-12.45-1.49-1.5-.85-2.26-3.03-2.26-6.4,0-.26,0-.81,.04-1.41h7.27Z"/><path d="M128.17,477.14l-13.92-18.61h9.46l8.22,11.78,8.14-11.78h9.28l-13.73,18.61v9.86h-7.45v-9.86Z"/><path d="M170.49,477.9c.07,1.96,.26,2.43,1.13,2.82,.55,.26,2.63,.43,4.97,.43,8.58,0,9.6-.3,9.6-2.65,0-1.15-.48-2.01-1.24-2.31q-.8-.3-4.64-.34h-6.72c-4.49,0-6.35-.3-7.93-1.24-1.75-1.07-2.56-3.33-2.56-7.21,0-5.12,1.24-7.3,4.75-8.28,1.97-.6,4.82-.81,10.15-.81,8.55,0,10.52,.26,12.27,1.58,1.68,1.32,2.23,3.07,2.23,7.34h-7.23c0-2.47-.73-2.82-5.51-2.82-2.37,0-5.55,.09-6.72,.17-1.97,.17-2.63,.77-2.63,2.39,0,1.19,.51,1.96,1.57,2.26,.44,.13,.58,.17,2.99,.21h6.9c.66,0,3.94,.13,5.19,.21,4.64,.25,6.46,2.65,6.46,8.36,0,5.25-1.32,7.55-4.89,8.45-1.83,.47-5.44,.73-10.74,.73-8.44,0-10.3-.21-12.45-1.49-1.5-.85-2.26-3.03-2.26-6.4,0-.26,0-.81,.04-1.41h7.27Z"/><path d="M219.19,465.57h-10.85v-7.04h29.11v7.04h-10.85v21.42h-7.41v-21.42Z"/><path d="M280.1,458.53v6.44h-19.69v4.91h18.55v5.63h-18.55v5.03h19.94v6.44h-27.25v-28.46h26.99Z"/><path d="M296.77,458.53h11.76l8.87,18.9,8.84-18.9h11.69v28.46h-7.23l.36-21.97-10.81,21.97h-5.92l-10.63-21.97,.22,21.97h-7.16v-28.46Z"/><path d="M362.09,477.9c.07,1.96,.26,2.43,1.13,2.82,.55,.26,2.63,.43,4.97,.43,8.58,0,9.6-.3,9.6-2.65,0-1.15-.48-2.01-1.24-2.31q-.8-.3-4.64-.34h-6.72c-4.49,0-6.35-.3-7.93-1.24-1.75-1.07-2.56-3.33-2.56-7.21,0-5.12,1.24-7.3,4.75-8.28,1.97-.6,4.82-.81,10.15-.81,8.55,0,10.52,.26,12.27,1.58,1.68,1.32,2.23,3.07,2.23,7.34h-7.23c0-2.47-.73-2.82-5.51-2.82-2.37,0-5.55,.09-6.72,.17-1.97,.17-2.63,.77-2.63,2.39,0,1.19,.51,1.96,1.57,2.26,.44,.13,.58,.17,2.99,.21h6.9c.66,0,3.94,.13,5.19,.21,4.64,.25,6.46,2.65,6.46,8.36,0,5.25-1.32,7.55-4.89,8.45-1.83,.47-5.44,.73-10.74,.73-8.44,0-10.3-.21-12.45-1.49-1.5-.85-2.26-3.03-2.26-6.4,0-.26,0-.81,.04-1.41h7.27Z"/><path d="M449.58,471.72c-.04,3.75-.11,5.29-.37,7l5.44,3.33-2.23,5.08-5.08-2.94c-2.23,2.43-3.94,2.86-11.98,2.86-6.21,0-9.82-.34-11.54-1.07-2.88-1.24-3.69-2.95-3.69-7.85,0-3.71,.51-5.38,2.05-6.4,.8-.55,1.64-.73,3.84-.81-2.34-1.02-3.07-2.39-3.07-5.8s.84-5.29,2.85-6.02c1.57-.55,3.32-.68,9.82-.68s9.2,.51,10.52,1.92c.73,.77,1.06,2.09,1.17,4.65,.04,.77,.04,.98,.04,2.52h-6.32v-.94c0-1.41-.62-2.13-1.97-2.22-.58-.04-3.4-.17-3.91-.17-4.53,0-5.59,.34-5.59,1.79,0,1.07,.22,1.32,2.41,2.6l11.43,6.83c.07-.64,.11-1.02,.11-1.92,0-.81-.04-1.07-.11-1.75h6.17Zm-19.98,2.01c-.33-.04-.66-.09-.84-.09-1.39,0-2.05,1.24-2.05,3.84,0,1.37,.22,2.18,.66,2.6,.88,.81,.91,.81,7.12,1.07h4.2c1.75,0,2.45-.09,3.07-.38l-12.16-7.04Z"/><path d="M500.98,458.53h9.93l13.33,28.46h-8.11l-2.41-5.08h-15.7l-2.34,5.08h-8.4l13.7-28.46Zm10.15,17.45l-5.26-11.35-5.19,11.35h10.44Z"/><path d="M565.57,458.53v6.44h-19.68v4.91h18.55v5.63h-18.55v5.03h19.94v6.44h-27.24v-28.46h26.99Z"/><path d="M582.25,458.53h21c4.31,0,6.21,.43,7.6,1.79,1.43,1.32,2.08,3.75,2.08,7.59,0,5.29-1.1,7.38-4.2,8.19,3.03,.6,3.95,2.09,3.87,6.4v4.48h-7.52v-3.54c-.04-3.07-.77-3.71-4.09-3.63h-11.36v7.17h-7.38v-28.46Zm18.95,14.34c3.58,0,4.27-.51,4.27-3.33,0-1.83-.15-2.6-.62-3.2-.55-.68-1.17-.81-3.4-.81h-11.83v7.34h11.58Z"/><path d="M656.27,458.66c3.76,.81,5.59,3.07,6.1,7.64,.15,1.15,.22,3.46,.22,6.91,0,6.87-.62,9.64-2.7,11.65-1.46,1.45-3.51,2.13-7.05,2.3-1.32,.09-4.57,.13-6.94,.13-5.81,0-8.77-.13-10.23-.47-2.7-.55-4.27-1.75-5.19-3.84-.95-2.09-1.17-4.18-1.17-10.41,0-4.78,.07-5.97,.51-7.89,.69-3.03,2.12-4.65,4.86-5.59,2.05-.68,4.27-.85,10.7-.85,7.01,0,9.17,.09,10.88,.43Zm-18.19,7.55c-.99,.9-1.28,2.3-1.28,6.4s.29,5.72,1.21,6.61c.99,.94,2.19,1.11,7.78,1.11,6.39,0,7.71-.26,8.55-1.62,.69-1.02,.88-2.47,.88-6.27,0-7.17-.11-7.25-9.24-7.25-5.44,0-6.94,.21-7.89,1.03Z"/><path d="M679.37,458.53h11.8l14.75,21.63-.18-21.63h7.01v28.46h-11.91l-14.54-21.42,.18,21.42h-7.12v-28.46Z"/><path d="M741.66,458.53h9.93l13.33,28.46h-8.11l-2.41-5.08h-15.7l-2.34,5.08h-8.4l13.69-28.46Zm10.15,17.45l-5.26-11.35-5.19,11.35h10.44Z"/><path d="M786.24,458.53v14.08c0,3.11,0,3.2,.11,3.97,.37,3.2,1.57,3.84,7.12,3.84s7.08-.17,8-.98c.73-.64,1.1-1.88,1.13-4.05q.04-.64,.04-3.8v-13.06h7.41v14.93c.07,7.04-.44,9.13-2.59,11.39-1.75,1.58-3.94,2.26-7.12,2.3-1.13,.04-1.79,.04-3.25,.04l-2.78,.04c-6.87-.04-8.22-.13-10.01-.68-4.42-1.58-5.59-4.27-5.48-12.71v-15.32h7.41Z"/><path d="M836.48,465.57h-10.85v-7.04h29.11v7.04h-10.85v21.42h-7.41v-21.42Z"/><path d="M870.39,458.53h7.41v28.46h-7.41v-28.46Z"/><path d="M925.6,476.28c-.04,4.14-.15,5.55-.66,6.83-.95,2.43-2.92,3.59-6.72,3.88-1.5,.17-4.42,.21-9.28,.21-7.01,0-9.28-.38-11.25-1.88-2.41-1.79-3.1-4.78-3.1-13.23,0-7.51,.73-10.2,3.29-11.9,2.19-1.49,4.53-1.88,11.36-1.88,9.09,0,11.06,.21,13.15,1.41,1.97,1.15,2.88,3.67,2.88,7.85v.94h-7.08c-.15-3.11-.7-3.37-7.12-3.37-6.06,0-7.16,.17-8.07,1.11-.88,.94-1.06,2.09-1.06,6.7,0,6.83,.55,7.34,7.67,7.34,5.51,0,6.32-.04,7.34-.55,1.06-.51,1.46-1.41,1.46-3.46h7.2Z"/><path d="M949.18,477.9c.07,1.96,.26,2.43,1.13,2.82,.55,.26,2.63,.43,4.97,.43,8.58,0,9.6-.3,9.6-2.65,0-1.15-.47-2.01-1.24-2.31q-.8-.3-4.64-.34h-6.72c-4.49,0-6.35-.3-7.92-1.24-1.75-1.07-2.56-3.33-2.56-7.21,0-5.12,1.24-7.3,4.75-8.28,1.97-.6,4.82-.81,10.15-.81,8.55,0,10.52,.26,12.27,1.58,1.68,1.32,2.23,3.07,2.23,7.34h-7.23c0-2.47-.73-2.82-5.52-2.82-2.37,0-5.55,.09-6.72,.17-1.97,.17-2.63,.77-2.63,2.39,0,1.19,.51,1.96,1.57,2.26,.44,.13,.58,.17,3,.21h6.9c.66,0,3.95,.13,5.19,.21,4.64,.25,6.47,2.65,6.47,8.36,0,5.25-1.32,7.55-4.89,8.45-1.83,.47-5.44,.73-10.74,.73-8.44,0-10.3-.21-12.45-1.49-1.5-.85-2.26-3.03-2.26-6.4,0-.26,0-.81,.04-1.41h7.27Z"/></g><g><path d="M102.35,280.27c-13.9,0-26.75,6.94-34.37,18.57L0,402.6H12.17c17.33,0,33.46-8.82,42.81-23.4h94.34c9.62,14.61,25.95,23.4,43.44,23.4h10.88l-66.75-103.51c-7.6-11.79-20.51-18.82-34.53-18.82Zm-32.79,75.71l28.03-43.67c1-1.56,2.73-2.5,4.58-2.5s3.56,.93,4.57,2.48l28.36,43.69H69.56Z"/><path d="M249.23,306.51h37.45v96.1h35.31v-96.1h63.49c0-14.49-11.75-26.23-26.23-26.23H223c0,14.49,11.75,26.23,26.23,26.23Z"/><path d="M554.96,376.37h-72.54v-60.79c0-19.5-15.81-35.31-35.31-35.31h0v122.33h134.08c0-14.49-11.75-26.23-26.23-26.23Z"/><path d="M734.52,280.27c-13.9,0-26.75,6.94-34.37,18.57l-67.98,103.76h12.17c17.33,0,33.46-8.82,42.81-23.4h94.34c9.62,14.61,25.94,23.4,43.44,23.4h10.88l-66.75-103.51c-7.6-11.79-20.51-18.82-34.54-18.82Zm-32.8,75.71l28.03-43.67c1-1.56,2.73-2.5,4.58-2.5s3.56,.93,4.57,2.48l28.36,43.69h-65.55Z"/><path d="M1044.58,338.98c-8.99-8.42-21.33-10.48-62.85-10.48h-22.92c-20.76,0-28.42-.66-32.75-2.8-3.15-1.6-4.56-4.26-4.56-8.64,0-1.12,.12-2.15,.34-3.1,.73-3.11,2.63-5.32,5.74-6.56,5.68-2.48,23.43-3.91,48.68-3.91,14.64,0,27.55,1.4,32.89,3.57,.02,0,.04,.02,.06,.03,10.11,4.28,20.85,6.88,31.83,6.88h7.81c-.27-18.39-6.91-26.94-24.2-31.32-9.3-2.47-23.77-3.44-51.64-3.44-45.6,0-66.13,2.91-75.67,10.7-5.85,4.47-9.59,13.06-10.63,24.05-.2,2.08-.31,4.23-.31,6.47,0,11.16,3.38,19.17,10.3,24.46,7.98,6.41,19.32,8.42,48.53,8.6h19.57q36.83,.18,42.32,1.21c9.35,1.78,11.12,4.91,11.12,10.06,0,1.44-.28,2.84-.75,4.16-.58,1.64-1.48,3.17-2.73,4.52-2.03,2.07-5.61,3.19-12.76,4.01-14.49,1.58-25.03,2.11-41.76,2.11-19.26,0-29.86-1.03-34.37-3.33-.02,0-.03-.02-.05-.03-8.77-4.51-18.32-7.29-28.18-7.29h-11.03c0,.09,0,.19,0,.27,0,11.74,2.91,19.44,9.45,24.97,9.08,7.56,24.23,9.51,73.71,9.51,46.06,0,63.87-2.53,73.32-10.41,6.42-5.44,9.72-13.26,10.33-24.34,.07-1.24,.13-2.49,.13-3.81,0-12.29-2.85-20.6-8.96-26.13Z"/></g><g><path d="M77.86,477.9c.07,1.96,.26,2.43,1.13,2.82,.55,.26,2.63,.43,4.97,.43,8.58,0,9.6-.3,9.6-2.65,0-1.15-.48-2.01-1.24-2.31q-.8-.3-4.64-.34h-6.72c-4.49,0-6.35-.3-7.93-1.24-1.75-1.07-2.56-3.33-2.56-7.21,0-5.12,1.24-7.3,4.75-8.28,1.97-.6,4.82-.81,10.15-.81,8.55,0,10.52,.26,12.27,1.58,1.68,1.32,2.23,3.07,2.23,7.34h-7.23c0-2.47-.73-2.82-5.51-2.82-2.37,0-5.55,.09-6.72,.17-1.97,.17-2.63,.77-2.63,2.39,0,1.19,.51,1.96,1.57,2.26,.44,.13,.58,.17,2.99,.21h6.9c.66,0,3.94,.13,5.19,.21,4.64,.25,6.46,2.65,6.46,8.36,0,5.25-1.32,7.55-4.89,8.45-1.83,.47-5.44,.73-10.74,.73-8.44,0-10.3-.21-12.45-1.49-1.5-.85-2.26-3.03-2.26-6.4,0-.26,0-.81,.04-1.41h7.27Z"/><path d="M128.17,477.14l-13.92-18.61h9.46l8.22,11.78,8.14-11.78h9.28l-13.73,18.61v9.86h-7.45v-9.86Z"/><path d="M170.49,477.9c.07,1.96,.26,2.43,1.13,2.82,.55,.26,2.63,.43,4.97,.43,8.58,0,9.6-.3,9.6-2.65,0-1.15-.48-2.01-1.24-2.31q-.8-.3-4.64-.34h-6.72c-4.49,0-6.35-.3-7.93-1.24-1.75-1.07-2.56-3.33-2.56-7.21,0-5.12,1.24-7.3,4.75-8.28,1.97-.6,4.82-.81,10.15-.81,8.55,0,10.52,.26,12.27,1.58,1.68,1.32,2.23,3.07,2.23,7.34h-7.23c0-2.47-.73-2.82-5.51-2.82-2.37,0-5.55,.09-6.72,.17-1.97,.17-2.63,.77-2.63,2.39,0,1.19,.51,1.96,1.57,2.26,.44,.13,.58,.17,2.99,.21h6.9c.66,0,3.94,.13,5.19,.21,4.64,.25,6.46,2.65,6.46,8.36,0,5.25-1.32,7.55-4.89,8.45-1.83,.47-5.44,.73-10.74,.73-8.44,0-10.3-.21-12.45-1.49-1.5-.85-2.26-3.03-2.26-6.4,0-.26,0-.81,.04-1.41h7.27Z"/><path d="M219.19,465.57h-10.85v-7.04h29.11v7.04h-10.85v21.42h-7.41v-21.42Z"/><path d="M280.1,458.53v6.44h-19.69v4.91h18.55v5.63h-18.55v5.03h19.94v6.44h-27.25v-28.46h26.99Z"/><path d="M296.77,458.53h11.76l8.87,18.9,8.84-18.9h11.69v28.46h-7.23l.36-21.97-10.81,21.97h-5.92l-10.63-21.97,.22,21.97h-7.16v-28.46Z"/><path d="M362.09,477.9c.07,1.96,.26,2.43,1.13,2.82,.55,.26,2.63,.43,4.97,.43,8.58,0,9.6-.3,9.6-2.65,0-1.15-.48-2.01-1.24-2.31q-.8-.3-4.64-.34h-6.72c-4.49,0-6.35-.3-7.93-1.24-1.75-1.07-2.56-3.33-2.56-7.21,0-5.12,1.24-7.3,4.75-8.28,1.97-.6,4.82-.81,10.15-.81,8.55,0,10.52,.26,12.27,1.58,1.68,1.32,2.23,3.07,2.23,7.34h-7.23c0-2.47-.73-2.82-5.51-2.82-2.37,0-5.55,.09-6.72,.17-1.97,.17-2.63,.77-2.63,2.39,0,1.19,.51,1.96,1.57,2.26,.44,.13,.58,.17,2.99,.21h6.9c.66,0,3.94,.13,5.19,.21,4.64,.25,6.46,2.65,6.46,8.36,0,5.25-1.32,7.55-4.89,8.45-1.83,.47-5.44,.73-10.74,.73-8.44,0-10.3-.21-12.45-1.49-1.5-.85-2.26-3.03-2.26-6.4,0-.26,0-.81,.04-1.41h7.27Z"/><path d="M449.58,471.72c-.04,3.75-.11,5.29-.37,7l5.44,3.33-2.23,5.08-5.08-2.94c-2.23,2.43-3.94,2.86-11.98,2.86-6.21,0-9.82-.34-11.54-1.07-2.88-1.24-3.69-2.95-3.69-7.85,0-3.71,.51-5.38,2.05-6.4,.8-.55,1.64-.73,3.84-.81-2.34-1.02-3.07-2.39-3.07-5.8s.84-5.29,2.85-6.02c1.57-.55,3.32-.68,9.82-.68s9.2,.51,10.52,1.92c.73,.77,1.06,2.09,1.17,4.65,.04,.77,.04,.98,.04,2.52h-6.32v-.94c0-1.41-.62-2.13-1.97-2.22-.58-.04-3.4-.17-3.91-.17-4.53,0-5.59,.34-5.59,1.79,0,1.07,.22,1.32,2.41,2.6l11.43,6.83c.07-.64,.11-1.02,.11-1.92,0-.81-.04-1.07-.11-1.75h6.17Zm-19.98,2.01c-.33-.04-.66-.09-.84-.09-1.39,0-2.05,1.24-2.05,3.84,0,1.37,.22,2.18,.66,2.6,.88,.81,.91,.81,7.12,1.07h4.2c1.75,0,2.45-.09,3.07-.38l-12.16-7.04Z"/><path d="M500.98,458.53h9.93l13.33,28.46h-8.11l-2.41-5.08h-15.7l-2.34,5.08h-8.4l13.7-28.46Zm10.15,17.45l-5.26-11.35-5.19,11.35h10.44Z"/><path d="M565.57,458.53v6.44h-19.68v4.91h18.55v5.63h-18.55v5.03h19.94v6.44h-27.24v-28.46h26.99Z"/><path d="M582.25,458.53h21c4.31,0,6.21,.43,7.6,1.79,1.43,1.32,2.08,3.75,2.08,7.59,0,5.29-1.1,7.38-4.2,8.19,3.03,.6,3.95,2.09,3.87,6.4v4.48h-7.52v-3.54c-.04-3.07-.77-3.71-4.09-3.63h-11.36v7.17h-7.38v-28.46Zm18.95,14.34c3.58,0,4.27-.51,4.27-3.33,0-1.83-.15-2.6-.62-3.2-.55-.68-1.17-.81-3.4-.81h-11.83v7.34h11.58Z"/><path d="M656.27,458.66c3.76,.81,5.59,3.07,6.1,7.64,.15,1.15,.22,3.46,.22,6.91,0,6.87-.62,9.64-2.7,11.65-1.46,1.45-3.51,2.13-7.05,2.3-1.32,.09-4.57,.13-6.94,.13-5.81,0-8.77-.13-10.23-.47-2.7-.55-4.27-1.75-5.19-3.84-.95-2.09-1.17-4.18-1.17-10.41,0-4.78,.07-5.97,.51-7.89,.69-3.03,2.12-4.65,4.86-5.59,2.05-.68,4.27-.85,10.7-.85,7.01,0,9.17,.09,10.88,.43Zm-18.19,7.55c-.99,.9-1.28,2.3-1.28,6.4s.29,5.72,1.21,6.61c.99,.94,2.19,1.11,7.78,1.11,6.39,0,7.71-.26,8.55-1.62,.69-1.02,.88-2.47,.88-6.27,0-7.17-.11-7.25-9.24-7.25-5.44,0-6.94,.21-7.89,1.03Z"/><path d="M679.37,458.53h11.8l14.75,21.63-.18-21.63h7.01v28.46h-11.91l-14.54-21.42,.18,21.42h-7.12v-28.46Z"/><path d="M741.66,458.53h9.93l13.33,28.46h-8.11l-2.41-5.08h-15.7l-2.34,5.08h-8.4l13.69-28.46Zm10.15,17.45l-5.26-11.35-5.19,11.35h10.44Z"/><path d="M786.24,458.53v14.08c0,3.11,0,3.2,.11,3.97,.37,3.2,1.57,3.84,7.12,3.84s7.08-.17,8-.98c.73-.64,1.1-1.88,1.13-4.05q.04-.64,.04-3.8v-13.06h7.41v14.93c.07,7.04-.44,9.13-2.59,11.39-1.75,1.58-3.94,2.26-7.12,2.3-1.13,.04-1.79,.04-3.25,.04l-2.78,.04c-6.87-.04-8.22-.13-10.01-.68-4.42-1.58-5.59-4.27-5.48-12.71v-15.32h7.41Z"/><path d="M836.48,465.57h-10.85v-7.04h29.11v7.04h-10.85v21.42h-7.41v-21.42Z"/><path d="M870.39,458.53h7.41v28.46h-7.41v-28.46Z"/><path d="M925.6,476.28c-.04,4.14-.15,5.55-.66,6.83-.95,2.43-2.92,3.59-6.72,3.88-1.5,.17-4.42,.21-9.28,.21-7.01,0-9.28-.38-11.25-1.88-2.41-1.79-3.1-4.78-3.1-13.23,0-7.51,.73-10.2,3.29-11.9,2.19-1.49,4.53-1.88,11.36-1.88,9.09,0,11.06,.21,13.15,1.41,1.97,1.15,2.88,3.67,2.88,7.85v.94h-7.08c-.15-3.11-.7-3.37-7.12-3.37-6.06,0-7.16,.17-8.07,1.11-.88,.94-1.06,2.09-1.06,6.7,0,6.83,.55,7.34,7.67,7.34,5.51,0,6.32-.04,7.34-.55,1.06-.51,1.46-1.41,1.46-3.46h7.2Z"/><path d="M949.18,477.9c.07,1.96,.26,2.43,1.13,2.82,.55,.26,2.63,.43,4.97,.43,8.58,0,9.6-.3,9.6-2.65,0-1.15-.47-2.01-1.24-2.31q-.8-.3-4.64-.34h-6.72c-4.49,0-6.35-.3-7.92-1.24-1.75-1.07-2.56-3.33-2.56-7.21,0-5.12,1.24-7.3,4.75-8.28,1.97-.6,4.82-.81,10.15-.81,8.55,0,10.52,.26,12.27,1.58,1.68,1.32,2.23,3.07,2.23,7.34h-7.23c0-2.47-.73-2.82-5.52-2.82-2.37,0-5.55,.09-6.72,.17-1.97,.17-2.63,.77-2.63,2.39,0,1.19,.51,1.96,1.57,2.26,.44,.13,.58,.17,3,.21h6.9c.66,0,3.95,.13,5.19,.21,4.64,.25,6.47,2.65,6.47,8.36,0,5.25-1.32,7.55-4.89,8.45-1.83,.47-5.44,.73-10.74,.73-8.44,0-10.3-.21-12.45-1.49-1.5-.85-2.26-3.03-2.26-6.4,0-.26,0-.81,.04-1.41h7.27Z"/></g></g></svg>