<svg xmlns="http://www.w3.org/2000/svg" xmlns:xlink="http://www.w3.org/1999/xlink" viewBox="0 0 1871.07 580.49"><defs><style>.cls-1,.cls-4{fill:none;}.cls-2{fill:#1d1d1b;}.cls-3{fill:#15abe2;}.cls-4{stroke:#1d1d1b;stroke-miterlimit:10;stroke-width:0.25px;}.cls-5{clip-path:url(#clip-path);}.cls-6{fill:#77aadc;}.cls-7{fill:#3573af;}</style><clipPath id="clip-path" transform="translate(0.04)"><rect class="cls-1" width="1882.99" height="580.49"/></clipPath></defs><g id="Layer_2" data-name="Layer 2"><g id="Camada_1" data-name="Camada 1"><path class="cls-2" d="M934.83,114.08h29.63V271.36c0,62.42-30,81.6-69.49,81.6-10.9,0-24.18-2.44-31.68-5.58l4.43-24.76a69.27,69.27,0,0,0,24.87,4.53c26.57,0,42.24-12.2,42.24-58.23Z" transform="translate(0.04)"/><path class="cls-2" d="M1150.79,303.09c0,17.44.34,32.78,1.36,46h-26.57l-1.7-27.55h-.68c-7.84,13.6-25.21,31.39-54.51,31.39-25.88,0-56.88-14.65-56.88-73.93V180.34h30V273.8c0,32.08,9.54,53.7,36.79,53.7,20.1,0,34.07-14.3,39.52-27.9a45.87,45.87,0,0,0,2.72-15.69V180.34h30Z" transform="translate(0.04)"/><path class="cls-2" d="M1200.52,226c0-17.43-.34-31.73-1.37-45.68h26.57l1.71,27.9h.68c8.17-16,27.25-31.74,54.5-31.74,22.82,0,58.25,13.95,58.25,71.84V349.12h-30V251.83c0-27.2-9.87-49.87-38.15-49.87-19.75,0-35.08,14.3-40.19,31.39a44.8,44.8,0,0,0-2,14.29V349.12h-30Z" transform="translate(0.04)"/><path class="cls-2" d="M1423,132.91c.34,10.47-7.15,18.83-19.08,18.83-10.56,0-18-8.36-18-18.83,0-10.81,7.83-19.18,18.74-19.18C1415.8,113.73,1423,122.1,1423,132.91Zm-33.38,216.21V180.34h30V349.12Z" transform="translate(0.04)"/><g id="tec"><path class="cls-3" d="M1505.34,131.87v48.47h42.92V203.7h-42.92v91c0,20.92,5.79,32.78,22.48,32.78a65.11,65.11,0,0,0,17.37-2.09l1.36,23c-5.79,2.44-15,4.18-26.57,4.18-14,0-25.2-4.53-32.36-12.9-8.51-9.07-11.58-24.07-11.58-43.94V203.7h-25.55V180.34H1476V139.89Z" transform="translate(0.04)"/><path class="cls-3" d="M1596.62,270.31c.69,41.5,26.57,58.59,56.55,58.59,21.46,0,34.4-3.84,45.65-8.72l5.11,22c-10.56,4.88-28.62,10.46-54.85,10.46-50.75,0-81.07-34.18-81.07-85.09s29.3-91,77.33-91c53.82,0,68.12,48.48,68.12,79.51a118.68,118.68,0,0,1-1,14.3Zm87.89-22c.34-19.53-7.84-49.87-41.56-49.87-30.32,0-43.6,28.6-46,49.87Z" transform="translate(0.04)"/><path class="cls-3" d="M1868.14,342.85c-7.84,4.18-25.21,9.76-47.35,9.76-49.74,0-82.1-34.52-82.1-86.13,0-52,34.75-89.63,88.57-89.63,17.71,0,33.38,4.54,41.56,8.72L1862,209.28c-7.15-4.18-18.39-8-34.74-8-37.81,0-58.25,28.6-58.25,63.82,0,39.06,24.53,63.12,57.23,63.12,17,0,28.27-4.53,36.79-8.37Z" transform="translate(0.04)"/></g><g id="JE"><path class="cls-2" d="M873.42,409.94h4.68v24.79c0,9.84-4.73,12.87-11,12.87a15,15,0,0,1-5-.88l.7-3.91a10.84,10.84,0,0,0,3.92.72c4.19,0,6.66-1.92,6.66-9.18Z" transform="translate(0.04)"/><path class="cls-2" d="M907.48,439.74c0,2.75,0,5.16.21,7.25H903.5l-.27-4.34h-.11a9.74,9.74,0,0,1-8.59,5c-4.08,0-9-2.31-9-11.66V420.38h4.73v14.74c0,5.06,1.5,8.47,5.8,8.47a6.85,6.85,0,0,0,6.23-4.4,7.25,7.25,0,0,0,.43-2.48V420.38h4.73Zm-3.23-30.85-6.55,7.87h-3.38l4.72-7.87Z" transform="translate(0.04)"/><path class="cls-2" d="M915.32,427.59c0-2.75-.06-5-.22-7.21h4.19l.27,4.4h.11a9.52,9.52,0,0,1,8.59-5c3.6,0,9.18,2.2,9.18,11.32V447h-4.72V431.65c0-4.28-1.56-7.86-6-7.86a6.76,6.76,0,0,0-6.34,4.95A7.29,7.29,0,0,0,920,431v16h-4.72Z" transform="translate(0.04)"/><path class="cls-2" d="M950.39,412.91a2.93,2.93,0,1,1-5.86,0,2.92,2.92,0,0,1,3-3A2.84,2.84,0,0,1,950.39,412.91ZM945.12,447V420.38h4.73V447Z" transform="translate(0.04)"/><path class="cls-2" d="M981.22,433.47c0,9.84-6.66,14.13-13,14.13-7,0-12.46-5.28-12.46-13.69,0-8.91,5.7-14.13,12.89-14.13C976.17,419.78,981.22,425.33,981.22,433.47Zm-20.63.27c0,5.83,3.28,10.23,7.9,10.23s7.89-4.34,7.89-10.34c0-4.5-2.2-10.22-7.78-10.22S960.59,428.69,960.59,433.74Z" transform="translate(0.04)"/><path class="cls-2" d="M987.18,428.69c0-3.14-.06-5.83-.22-8.31h4.14l.16,5.23h.22c1.18-3.58,4-5.83,7.19-5.83a5.05,5.05,0,0,1,1.35.16v4.57a7,7,0,0,0-1.62-.17c-3.33,0-5.69,2.59-6.33,6.22a13.51,13.51,0,0,0-.22,2.25V447h-4.67Z" transform="translate(0.04)"/><path class="cls-2" d="M1035,429.62H1021V443h15.69v4h-20.36V409.94h19.55v4H1021v11.71H1035Z" transform="translate(0.04)"/><path class="cls-2" d="M1042.55,427.59c0-2.75,0-5-.21-7.21h4.13l.22,4.29h.16a8.93,8.93,0,0,1,8.16-4.89,7.7,7.7,0,0,1,7.36,5.33h.11a10.85,10.85,0,0,1,2.9-3.46,8.75,8.75,0,0,1,5.75-1.87c3.43,0,8.54,2.31,8.54,11.54V447h-4.62V431.93c0-5.11-1.83-8.19-5.64-8.19a6.14,6.14,0,0,0-5.59,4.4,8.31,8.31,0,0,0-.37,2.42V447h-4.62V431.05c0-4.23-1.83-7.31-5.43-7.31-3,0-5.1,2.42-5.85,4.84a6.76,6.76,0,0,0-.38,2.36V447h-4.62Z" transform="translate(0.04)"/><path class="cls-2" d="M1087.35,429.07c0-3.41-.11-6.16-.22-8.69h4.24l.22,4.57h.11a10.15,10.15,0,0,1,9.23-5.17c6.29,0,11,5.44,11,13.52,0,9.57-5.69,14.3-11.81,14.3a9,9,0,0,1-8-4.18H1092v14.46h-4.67Zm4.67,7.09a11.79,11.79,0,0,0,.21,2,7.33,7.33,0,0,0,7.09,5.67c5,0,7.9-4.18,7.9-10.29,0-5.33-2.74-9.89-7.74-9.89a7.58,7.58,0,0,0-7.14,6,8.11,8.11,0,0,0-.32,2Z" transform="translate(0.04)"/><path class="cls-2" d="M1117.91,428.69c0-3.14-.06-5.83-.22-8.31h4.14l.16,5.23h.21c1.18-3.58,4-5.83,7.2-5.83a5,5,0,0,1,1.34.16v4.57a6.85,6.85,0,0,0-1.61-.17c-3.33,0-5.69,2.59-6.34,6.22a14.74,14.74,0,0,0-.21,2.25V447h-4.67Z" transform="translate(0.04)"/><path class="cls-2" d="M1138.1,434.57c.11,6.54,4.19,9.24,8.92,9.24a16.7,16.7,0,0,0,7.19-1.38l.81,3.46a20.65,20.65,0,0,1-8.65,1.65c-8,0-12.78-5.38-12.78-13.41s4.62-14.35,12.19-14.35c8.49,0,10.74,7.64,10.74,12.53a17.67,17.67,0,0,1-.16,2.26ZM1152,431.1c0-3.07-1.24-7.86-6.56-7.86-4.78,0-6.87,4.51-7.25,7.86Z" transform="translate(0.04)"/><path class="cls-2" d="M1161.73,442.05A12.25,12.25,0,0,0,1168,444c3.44,0,5-1.76,5-4s-1.34-3.57-4.83-4.89c-4.68-1.71-6.88-4.35-6.88-7.53,0-4.29,3.39-7.81,9-7.81a12.74,12.74,0,0,1,6.39,1.65l-1.18,3.52a10,10,0,0,0-5.32-1.54c-2.79,0-4.35,1.65-4.35,3.63,0,2.2,1.56,3.19,5,4.51,4.51,1.75,6.82,4.06,6.82,8,0,4.67-3.55,8-9.72,8a14.57,14.57,0,0,1-7.31-1.81Z" transform="translate(0.04)"/><path class="cls-2" d="M1198,447l-.38-3.35h-.16a9.61,9.61,0,0,1-8,4c-5.26,0-8-3.79-8-7.64,0-6.44,5.59-9.95,15.63-9.9v-.55c0-2.2-.59-6.16-5.9-6.16a12.71,12.71,0,0,0-6.77,2l-1.08-3.19a15.87,15.87,0,0,1,8.54-2.36c8,0,9.89,5.55,9.89,10.89v9.95a37.39,37.39,0,0,0,.43,6.37Zm-.7-13.58c-5.15-.11-11,.83-11,6a4.23,4.23,0,0,0,4.46,4.61,6.47,6.47,0,0,0,6.28-4.45,5.14,5.14,0,0,0,.27-1.54Z" transform="translate(0.04)"/><path class="cls-2" d="M1208.89,442.05a12.22,12.22,0,0,0,6.23,1.92c3.44,0,5.05-1.76,5.05-4s-1.35-3.57-4.84-4.89c-4.67-1.71-6.87-4.35-6.87-7.53,0-4.29,3.38-7.81,9-7.81a12.74,12.74,0,0,1,6.39,1.65l-1.18,3.52a10,10,0,0,0-5.32-1.54c-2.79,0-4.35,1.65-4.35,3.63,0,2.2,1.56,3.19,4.94,4.51,4.51,1.75,6.82,4.06,6.82,8,0,4.67-3.54,8-9.72,8a14.5,14.5,0,0,1-7.3-1.81Z" transform="translate(0.04)"/><path class="cls-2" d="M1264.64,408v32.16c0,2.37,0,5.06.21,6.87h-4.24l-.21-4.61h-.11a9.6,9.6,0,0,1-8.86,5.22c-6.29,0-11.12-5.44-11.12-13.53-.06-8.85,5.32-14.29,11.65-14.29,4,0,6.66,1.92,7.85,4.07h.1V408Zm-4.73,23.26a8.84,8.84,0,0,0-.21-2,7,7,0,0,0-6.82-5.61c-4.89,0-7.79,4.4-7.79,10.28,0,5.39,2.58,9.84,7.68,9.84a7.14,7.14,0,0,0,6.93-5.77,8.66,8.66,0,0,0,.21-2.09Z" transform="translate(0.04)"/><path class="cls-2" d="M1296,433.47c0,9.84-6.66,14.13-13,14.13-7,0-12.46-5.28-12.46-13.69,0-8.91,5.69-14.13,12.89-14.13C1291,419.78,1296,425.33,1296,433.47Zm-20.63.27c0,5.83,3.28,10.23,7.9,10.23s7.89-4.34,7.89-10.34c0-4.5-2.2-10.22-7.79-10.22S1275.38,428.69,1275.38,433.74Z" transform="translate(0.04)"/><path class="cls-2" d="M1318.19,409.94V447h-4.68V409.94Z" transform="translate(0.04)"/><path class="cls-2" d="M1326.19,427.59c0-2.75-.06-5-.22-7.21h4.19l.27,4.4h.11a9.53,9.53,0,0,1,8.59-5c3.6,0,9.19,2.2,9.19,11.32V447h-4.73V431.65c0-4.28-1.56-7.86-6-7.86a6.74,6.74,0,0,0-6.33,4.95,7,7,0,0,0-.33,2.26v16h-4.72Z" transform="translate(0.04)"/><path class="cls-2" d="M1355.35,442.05a12.25,12.25,0,0,0,6.23,1.92c3.44,0,5.05-1.76,5.05-4s-1.34-3.57-4.83-4.89c-4.68-1.71-6.88-4.35-6.88-7.53,0-4.29,3.39-7.81,9-7.81a12.74,12.74,0,0,1,6.39,1.65L1369.1,425a10,10,0,0,0-5.32-1.54c-2.79,0-4.35,1.65-4.35,3.63,0,2.2,1.56,3.19,5,4.51,4.51,1.75,6.82,4.06,6.82,8,0,4.67-3.55,8-9.72,8a14.57,14.57,0,0,1-7.31-1.81Z" transform="translate(0.04)"/><path class="cls-2" d="M1383,412.74v7.64h6.77v3.69H1383v14.35c0,3.3.91,5.17,3.54,5.17a10.47,10.47,0,0,0,2.74-.33l.22,3.62a11.2,11.2,0,0,1-4.19.66,6.45,6.45,0,0,1-5.1-2c-1.35-1.43-1.83-3.79-1.83-6.93V424.07h-4v-3.69h4V414Z" transform="translate(0.04)"/><path class="cls-2" d="M1400.31,412.91a2.93,2.93,0,1,1-5.86,0,2.92,2.92,0,0,1,3-3A2.84,2.84,0,0,1,1400.31,412.91ZM1395,447V420.38h4.73V447Z" transform="translate(0.04)"/><path class="cls-2" d="M1413.3,412.74v7.64h6.77v3.69h-6.77v14.35c0,3.3.92,5.17,3.55,5.17a10.53,10.53,0,0,0,2.74-.33l.21,3.62a11.2,11.2,0,0,1-4.19.66,6.47,6.47,0,0,1-5.1-2c-1.34-1.43-1.82-3.79-1.82-6.93V424.07h-4v-3.69h4V414Z" transform="translate(0.04)"/><path class="cls-2" d="M1447.14,439.74c0,2.75,0,5.16.22,7.25h-4.19l-.27-4.34h-.11a9.74,9.74,0,0,1-8.59,5c-4.09,0-9-2.31-9-11.66V420.38H1430v14.74c0,5.06,1.51,8.47,5.8,8.47a6.84,6.84,0,0,0,6.23-4.4,7.25,7.25,0,0,0,.43-2.48V420.38h4.73Z" transform="translate(0.04)"/><path class="cls-2" d="M1460.68,412.74v7.64h6.76v3.69h-6.76v14.35c0,3.3.91,5.17,3.54,5.17a10.47,10.47,0,0,0,2.74-.33l.21,3.62a11.2,11.2,0,0,1-4.19.66,6.47,6.47,0,0,1-5.1-2c-1.34-1.43-1.82-3.79-1.82-6.93V424.07h-4v-3.69h4V414Z" transform="translate(0.04)"/><path class="cls-2" d="M1496.28,433.47c0,9.84-6.66,14.13-12.94,14.13-7,0-12.46-5.28-12.46-13.69,0-8.91,5.69-14.13,12.89-14.13C1491.24,419.78,1496.28,425.33,1496.28,433.47Zm-20.62.27c0,5.83,3.28,10.23,7.9,10.23s7.89-4.34,7.89-10.34c0-4.5-2.2-10.22-7.79-10.22S1475.66,428.69,1475.66,433.74Z" transform="translate(0.04)"/><path class="cls-2" d="M1513.15,441.17a16.27,16.27,0,0,0,8.38,2.42c4.78,0,7.57-2.59,7.57-6.33,0-3.46-1.93-5.44-6.82-7.36-5.91-2.15-9.56-5.28-9.56-10.51,0-5.77,4.67-10.06,11.71-10.06a16.08,16.08,0,0,1,8,1.82l-1.29,3.9a14.15,14.15,0,0,0-6.87-1.76c-4.94,0-6.82,3-6.82,5.56,0,3.46,2.2,5.16,7.19,7.14,6.13,2.42,9.24,5.44,9.24,10.89,0,5.72-4.13,10.66-12.67,10.66-3.5,0-7.31-1-9.24-2.36Z" transform="translate(0.04)"/><path class="cls-2" d="M1561.86,439.74c0,2.75.06,5.16.22,7.25h-4.19l-.27-4.34h-.11a9.74,9.74,0,0,1-8.59,5c-4.08,0-9-2.31-9-11.66V420.38h4.73v14.74c0,5.06,1.5,8.47,5.8,8.47a6.85,6.85,0,0,0,6.23-4.4,7.25,7.25,0,0,0,.43-2.48V420.38h4.72Z" transform="translate(0.04)"/><path class="cls-2" d="M1569.7,429.07c0-3.41-.1-6.16-.21-8.69h4.24L1574,425h.11a10.15,10.15,0,0,1,9.23-5.17c6.29,0,11,5.44,11,13.52,0,9.57-5.69,14.3-11.81,14.3a9.07,9.07,0,0,1-8-4.18h-.1v14.46h-4.68Zm4.68,7.09a10.83,10.83,0,0,0,.21,2,7.33,7.33,0,0,0,7.09,5.67c5,0,7.9-4.18,7.9-10.29,0-5.33-2.74-9.89-7.74-9.89a7.58,7.58,0,0,0-7.14,6,8.11,8.11,0,0,0-.32,2Z" transform="translate(0.04)"/><path class="cls-2" d="M1602.9,434.57c.1,6.54,4.19,9.24,8.91,9.24a16.72,16.72,0,0,0,7.2-1.38l.8,3.46a20.59,20.59,0,0,1-8.64,1.65c-8,0-12.79-5.38-12.79-13.41s4.62-14.35,12.2-14.35c8.48,0,10.74,7.64,10.74,12.53a19.75,19.75,0,0,1-.16,2.26Zm13.85-3.47c.06-3.07-1.23-7.86-6.55-7.86-4.78,0-6.87,4.51-7.25,7.86Z" transform="translate(0.04)"/><path class="cls-2" d="M1627.17,428.69c0-3.14-.05-5.83-.21-8.31h4.13l.16,5.23h.22c1.18-3.58,4-5.83,7.2-5.83a5,5,0,0,1,1.34.16v4.57a6.91,6.91,0,0,0-1.61-.17c-3.33,0-5.7,2.59-6.34,6.22a13.57,13.57,0,0,0-.21,2.25V447h-4.68Z" transform="translate(0.04)"/><path class="cls-2" d="M1650,412.91a2.93,2.93,0,1,1-5.86,0,2.92,2.92,0,0,1,3-3A2.84,2.84,0,0,1,1650,412.91ZM1644.73,447V420.38h4.73V447Z" transform="translate(0.04)"/><path class="cls-2" d="M1680.83,433.47c0,9.84-6.66,14.13-12.95,14.13-7,0-12.46-5.28-12.46-13.69,0-8.91,5.7-14.13,12.89-14.13C1675.78,419.78,1680.83,425.33,1680.83,433.47Zm-20.63.27c0,5.83,3.28,10.23,7.9,10.23s7.89-4.34,7.89-10.34c0-4.5-2.2-10.22-7.78-10.22S1660.2,428.69,1660.2,433.74Z" transform="translate(0.04)"/><path class="cls-2" d="M1686.79,428.69c0-3.14,0-5.83-.22-8.31h4.14l.16,5.23h.22c1.18-3.58,4-5.83,7.19-5.83a5.05,5.05,0,0,1,1.35.16v4.57a7,7,0,0,0-1.61-.17c-3.33,0-5.7,2.59-6.34,6.22a13.51,13.51,0,0,0-.22,2.25V447h-4.67Z" transform="translate(0.04)"/><path class="cls-2" d="M1714.42,414h-11v-4.07h26.8V414h-11.06v33h-4.73Z" transform="translate(0.04)"/><path class="cls-2" d="M1732.73,434.57c.11,6.54,4.19,9.24,8.92,9.24a16.79,16.79,0,0,0,7.2-1.38l.8,3.46a20.59,20.59,0,0,1-8.64,1.65c-8,0-12.79-5.38-12.79-13.41s4.62-14.35,12.19-14.35c8.49,0,10.75,7.64,10.75,12.53a19.75,19.75,0,0,1-.16,2.26Zm13.86-3.47c.06-3.07-1.23-7.86-6.55-7.86-4.78,0-6.88,4.51-7.25,7.86Zm1.13-22.21-6.55,7.87h-3.39l4.73-7.87Z" transform="translate(0.04)"/><path class="cls-2" d="M1775.54,446a17,17,0,0,1-7.47,1.54c-7.84,0-12.94-5.44-12.94-13.58s5.48-14.13,14-14.13a15.48,15.48,0,0,1,6.55,1.38l-1.08,3.74a10.71,10.71,0,0,0-5.47-1.27c-6,0-9.19,4.51-9.19,10.06,0,6.16,3.87,9.95,9,9.95a13.23,13.23,0,0,0,5.8-1.31Z" transform="translate(0.04)"/><path class="cls-2" d="M1781.07,427.59c0-2.75,0-5-.21-7.21h4.19l.26,4.4h.11a9.53,9.53,0,0,1,8.6-5c3.59,0,9.18,2.2,9.18,11.32V447h-4.73V431.65c0-4.28-1.55-7.86-6-7.86a6.75,6.75,0,0,0-6.34,4.95,7.29,7.29,0,0,0-.32,2.26v16h-4.73Z" transform="translate(0.04)"/><path class="cls-2" d="M1816.14,412.91a2.81,2.81,0,0,1-3,3,2.85,2.85,0,0,1-2.85-3,2.91,2.91,0,0,1,3-3A2.84,2.84,0,0,1,1816.14,412.91ZM1810.88,447V420.38h4.73V447Z" transform="translate(0.04)"/><path class="cls-2" d="M1842,446a17.11,17.11,0,0,1-7.47,1.54c-7.84,0-12.94-5.44-12.94-13.58s5.48-14.13,14-14.13a15.49,15.49,0,0,1,6.56,1.38L1841,425a10.75,10.75,0,0,0-5.48-1.27c-6,0-9.18,4.51-9.18,10.06,0,6.16,3.87,9.95,9,9.95a13.23,13.23,0,0,0,5.8-1.31Z" transform="translate(0.04)"/><path class="cls-2" d="M1871,433.47c0,9.84-6.66,14.13-13,14.13-7,0-12.46-5.28-12.46-13.69,0-8.91,5.69-14.13,12.89-14.13C1866,419.78,1871,425.33,1871,433.47Zm-20.63.27c0,5.83,3.28,10.23,7.9,10.23s7.89-4.34,7.89-10.34c0-4.5-2.2-10.22-7.79-10.22S1850.41,428.69,1850.41,433.74Z" transform="translate(0.04)"/></g><line class="cls-4" x1="707.5" y1="33.45" x2="707.5" y2="546.33"/><g class="cls-5"><path class="cls-3" d="M529.22,85.46c-.16-2.51-.33-5-.53-7.53,0-.49-.06-1-.1-1.45a560.65,560.65,0,0,0-9.85-68.91A526.76,526.76,0,0,0,429.82,0c-5.6,0-11.17.12-16.72.29a523.8,523.8,0,0,0-58.34,5.13c-3,.43-6,.89-9,1.37h-.08C242.38,23.52,149,70.47,74.27,138.54q-17.11,15.6-32.91,32.62A547.79,547.79,0,0,0,0,221.66a551.38,551.38,0,0,0,21.6,67.78c.32.82.63,1.65,1,2.47a548.55,548.55,0,0,1,39.73-48.53q15.54-16.9,32.43-32.4A530,530,0,0,1,318.22,88.18c7.08-1.81,14.2-3.5,21.39-5l.08,0c4.11-.87,8.25-1.67,12.39-2.45A523.81,523.81,0,0,1,421,72.51c.18,4,.33,8,.42,12q.17,6.56.17,13.14c0,141.71-52.62,270.81-138.89,368q-14.55,16.38-30.31,31.56a540.78,540.78,0,0,1-75.14-66.8,538.27,538.27,0,0,1-43.6,36,540.75,540.75,0,0,0,76.53,67.3,532.56,532.56,0,0,0,77.67,46.67,540.23,540.23,0,0,0,45.6-34.15q16.91-14.12,32.61-29.57c101.33-99.65,164.42-239.76,164.42-395,0-12.22-.43-24.33-1.21-36.35Z" transform="translate(0.04)"/></g><path class="cls-6" d="M117.5,448.76c.73-.52,1.45-1.07,2.18-1.61-.73.54-1.48,1.05-2.21,1.57l0,0Z" transform="translate(0.04)"/><path class="cls-6" d="M161.73,413.32q-14.59,13-30.08,24.9,15.49-11.89,30.11-24.86l0,0Z" transform="translate(0.04)"/><path class="cls-7" d="M71.08,266a548.41,548.41,0,0,0-38.45,49.73,549.67,549.67,0,0,0,84.84,133c.73-.52,1.48-1,2.21-1.57,1-.76,2.09-1.54,3.14-2.31,2.64-1.94,5.27-3.89,7.88-5.88l1-.74q15.48-11.91,30.08-24.9A550,550,0,0,1,71.08,266Z" transform="translate(0.04)"/></g></g></svg>