<?xml version="1.0" encoding="utf-8"?>
<!-- Generator: Adobe Illustrator 25.3.1, SVG Export Plug-In . SVG Version: 6.00 Build 0)  -->
<svg version="1.1" id="Ebene_1" xmlns="http://www.w3.org/2000/svg" xmlns:xlink="http://www.w3.org/1999/xlink" x="0px" y="0px"
	 viewBox="0 0 283.46 59.51" style="enable-background:new 0 0 283.46 59.51;" xml:space="preserve">
<style type="text/css">
	.st0{fill:#327FEF;}
</style>
<path id="Wortmarke" d="M271.84,58.72h-7.1l3.61-9.46l-6.45-14.49v0.05h-4.27v8.97c0,1.58,0.79,2.28,2.2,2.28
	c0.83,0,1.45-0.12,2.12-0.37v5.64c-0.95,0.25-2.37,0.62-4.11,0.62c-4.9,0-7.64-2.37-7.64-7.47v-9.67h-2.61v-5.06h2.61v-4.55h7.43
	v4.55h2.05h2.23h5.82l4.48,11.58l4.15-11.58h7.1L271.84,58.72z M237.77,51.46h7.43V29.75h-7.43V51.46z M228.37,51.46l7.93-21.71
	h-7.1l-4.44,13.99l-4.52-13.99h-7.93l7.97,21.71L228.37,51.46z M204.84,42.54h-1.95c-2.99,0-4.32,0.58-4.32,2.37
	c0,1.25,0.83,2.03,2.57,2.03c2.12,0,3.69-1.2,3.69-3.07L204.84,42.54L204.84,42.54z M205,51.46v-2.53
	c-1.04,1.58-2.95,3.03-6.43,3.03c-3.9,0-7.35-1.91-7.35-6.52c0-5.1,4.32-7.1,11.54-7.1h2.08v-0.5c0-2.08-0.5-3.44-2.86-3.44
	c-1.9,0-2.68,1.05-2.91,2.3h-6.98c0.46-5.04,4.52-7.53,10.35-7.53c5.98,0,9.8,2.45,9.8,8.22v14.07H205z M191.22,36.72v-7.25
	c-3.36-0.04-5.64,1.37-7.01,4.61v-4.32h-7.43v21.71h7.43v-9.98C184.21,38,186.7,36.59,191.22,36.72z M165.85,39.63
	c0-2.99-1.54-4.9-4.28-4.9c-2.78,0-4.27,1.95-4.27,4.94V40c0,2.99,1.58,4.9,4.23,4.9c2.66,0,4.32-1.91,4.32-4.98V39.63z
	 M173.07,49.63c0,6.47-4.28,9.88-12.04,9.88c-7.39,0-10.79-3.11-11.37-8.05h7.39c0.33,1.58,1.29,2.82,3.98,2.82
	c3.28,0,4.61-1.87,4.61-4.57v-3.32c-1.12,2.08-3.49,3.98-6.72,3.98c-5.06,0-9.21-3.74-9.21-10.42v-0.33
	c0-6.39,4.11-10.46,9.21-10.46c3.44,0,5.48,1.45,6.72,3.65v-3.07h7.43V49.63z M135.1,40.38c0-3.65-1.54-5.6-4.28-5.6
	c-2.78,0-4.27,1.87-4.27,5.64v0.33c0,3.65,1.62,5.52,4.19,5.52c2.7,0,4.36-1.87,4.36-5.56V40.38z M134.89,51.46v-3.53
	c-1.08,2.24-3.49,4.03-6.76,4.03c-5.02,0-9.13-3.61-9.13-11.12v-0.33c0-7.39,4.07-11.33,9.21-11.33c3.4,0,5.44,1.45,6.68,3.65V20.59
	h7.43v30.87L134.89,51.46z M109.34,51.46h7.43V37.35c0-5.56-2.91-8.18-7.1-8.18c-3.61,0-5.98,1.83-7.14,4.07v-3.49H95.1v21.71h7.43
	V39.3c0-2.78,1.49-4.11,3.69-4.11c2.16,0,3.11,1.2,3.11,3.65L109.34,51.46L109.34,51.46z M85.32,40.42c0-3.65-1.45-5.69-4.28-5.69
	c-2.78,0-4.32,1.95-4.32,5.6v0.33c0,3.74,1.45,5.77,4.32,5.77c2.78,0,4.28-2.08,4.28-5.69V40.42z M92.88,40.67
	c0,7.06-5.19,11.29-11.87,11.29s-11.87-4.07-11.87-11.08v-0.33c0-6.97,5.19-11.37,11.91-11.37c6.68,0,11.83,4.28,11.83,11.16V40.67z
	 M58.9,58.72l11.62-28.97h-7.1l-4.15,11.58l-4.48-11.58h-8.05l8.67,19.51l-3.61,9.46H58.9z M40.74,38.14
	c-0.12-2.61-1.41-4.07-3.82-4.07c-2.24,0-3.78,1.45-4.15,4.07H40.74z M32.69,42.33c0.21,2.86,1.87,4.52,4.52,4.52
	c2.45,0,3.49-1.12,3.78-2.57h6.97c-0.66,4.9-4.44,7.68-11,7.68c-6.81,0-11.79-3.98-11.79-11.08v-0.33c0-6.97,5.19-11.37,11.75-11.37
	c5.94,0,11.04,3.4,11.04,11.21v1.95L32.69,42.33L32.69,42.33z M15.81,40.42c0-3.82-1.66-5.64-4.27-5.64c-2.7,0-4.32,1.95-4.32,5.6
	v0.33c0,3.69,1.62,5.56,4.32,5.56c2.78,0,4.27-1.95,4.27-5.52V40.42z M23.36,40.75c0,7.47-4.11,11.21-9.21,11.21
	c-3.24,0-5.64-1.54-6.72-3.86v3.36H0V20.59h7.43v12.4c1.25-2.08,3.49-3.82,6.77-3.82c5.06,0,9.17,3.82,9.17,11.25L23.36,40.75
	L23.36,40.75z"/>
<circle id="Punkt" class="st0" cx="241.48" cy="5.15" r="5.15"/>
</svg>
