<?xml version="1.0" encoding="utf-8"?>
<!-- Generator: Adobe Illustrator 27.4.0, SVG Export Plug-In . SVG Version: 6.00 Build 0)  -->
<svg version="1.1" id="Layer_1" xmlns="http://www.w3.org/2000/svg" xmlns:xlink="http://www.w3.org/1999/xlink" x="0px" y="0px"
	 viewBox="0 0 1137 340" style="enable-background:new 0 0 1137 340;" xml:space="preserve">
<style type="text/css">
	.st0{fill:#FF2D14;}
</style>
<g>
	<path d="M513.35,189.57v-37.44c0-25.13,20.14-45.23,44.76-45.23H578c24.12,0,43.51,18.84,44.76,42.71v27.14h-84.54v12.81
		c0,11.06,8.95,20.1,19.89,20.1H578c10.94,0,19.89-9.04,19.89-20.1v-2.51h24.86v2.51c0,24.88-19.89,45.48-44.76,45.48h-19.89
		C533.49,235.05,513.35,214.45,513.35,189.57L513.35,189.57z M597.89,156.66v-4.52c0-11.31-8.7-20.1-19.89-20.1h-19.89
		c-11.19,0-19.89,9.05-19.89,20.1v4.52H597.89L597.89,156.66z"/>
	<path d="M635.32,190.08v-37.94c0-25.13,19.89-45.23,44.76-45.23h19.89c24.86,0,44.76,20.1,44.76,45.23v37.94
		c0,25.13-19.89,44.98-44.76,44.98h-19.89C655.22,235.05,635.32,215.2,635.32,190.08L635.32,190.08z M680.08,209.93h19.89
		c11.19,0,19.89-8.54,19.89-19.85v-37.94c0-11.31-8.7-20.1-19.89-20.1h-19.89c-11.19,0-19.89,8.79-19.89,20.1v37.94
		C660.19,201.38,668.89,209.68,680.08,209.93L680.08,209.93z"/>
	<path d="M755.51,197.87v-5.03h24.86v5.03c0,8.04,6.46,13.82,17.16,13.82h22.63c11.69,0,17.41-4.77,17.41-12.06
		c0-28.39-80.31-10.05-80.31-58.8c0-20.35,16.16-33.92,39.78-33.92h21.38c22.38,0,39.78,16.33,39.78,37.44v2.26h-24.86v-2.26
		c0-8.04-6.22-14.07-14.92-14.07h-21.38c-10.44,0-14.92,4.27-14.92,10.55c0,20.35,80.31,7.54,80.31,58.8
		c0,21.1-17.16,35.43-42.27,35.43h-22.63C773.42,235.05,755.51,219.22,755.51,197.87L755.51,197.87z"/>
	<path d="M872.29,189.83v-37.69c0-25.13,20.14-45.23,44.76-45.23h19.15l20.64,14.07v-14.07h24.86v128.15h-24.86v-14.07l-20.64,14.07
		h-19.15C892.43,235.05,872.29,214.7,872.29,189.83L872.29,189.83z M917.05,209.93h11.44l28.34-19.35v-39.2l-28.34-19.35h-11.44
		c-10.94,0-19.89,9.05-19.89,20.1v37.69C897.16,200.88,906.11,209.93,917.05,209.93L917.05,209.93z"/>
	<path d="M1054.96,209.93v-20.1v-57.79h43.52v-25.13H991.56v25.13h38.54v57.79c0,25.13,19.89,45.23,44.76,45.23h23.62v-25.13h-23.62
		H1054.96L1054.96,209.93z"/>
	<path d="M446.08,159.52v20.1h29.84v10.46c0,11.31-8.7,19.85-19.89,19.85h-19.89c-11.19-0.25-19.89-8.54-19.89-19.85v-37.94
		c0-11.31,8.7-20.1,19.89-20.1h19.89c8.87,0,16.15,5.53,18.8,13.45h25.48c-3.15-21.93-21.65-38.58-44.28-38.58h-19.89
		c-24.86,0-44.76,20.1-44.76,45.23v37.94c0,25.13,19.89,44.98,44.76,44.98h19.89c24.86,0,44.76-19.85,44.76-44.98v-10.46v-20.1
		h-24.86H446.08L446.08,159.52z"/>
	<path class="st0" d="M303.45,151.76V36.43H189.32v64.06C146.93,68.31,94.24,49.24,37.15,49.24v128.15
		c70.04,0,126.81,57.38,126.81,128.15h126.81c0-57.7-18.87-110.95-50.72-153.78H303.45L303.45,151.76z"/>
</g>
</svg>
